<?xml version="1.0" encoding="utf-8"?><svg xmlns="http://www.w3.org/2000/svg" xmlns:xlink="http://www.w3.org/1999/xlink"><symbol viewBox="0 0 35 35" id="about1" xmlns="http://www.w3.org/2000/svg"><g clip-path="url(#aprefix__prefix__clip0)"><path d="M30.383 23.006c.14-.773.213-1.56.213-2.35 0-7.049-5.599-12.814-12.583-13.084v-2.35h.72a3.48 3.48 0 003.476-3.476v-.96A.787.787 0 0021.423 0h-.96a3.482 3.482 0 00-3.368 2.618 3.467 3.467 0 00-2.558-1.126h-.96a.787.787 0 00-.786.786v.96a3.48 3.48 0 003.476 3.476h.72v.858c-8.008.296-13.799 7.59-12.37 15.434-.953.04-1.732.859-1.732 1.816 0 .848.602 1.594 1.432 1.774l.984.214c-.819.637-.943 1.87-.199 2.615.193.192.421.33.664.41a1.701 1.701 0 00-.197.798c0 .457.177.886.5 1.209.32.319.742.496 1.193.5a1.71 1.71 0 002.505 1.495c.223.681.912 1.163 1.62 1.163.437 0 .875-.167 1.208-.5l1.262-1.262a13.13 13.13 0 003.643.514c1.24 0 2.464-.173 3.643-.514l1.262 1.262a1.71 1.71 0 002.829-.663 1.712 1.712 0 002.005-.304c.329-.328.495-.76.5-1.191.45-.004.873-.181 1.192-.5a1.733 1.733 0 00.304-2.006 1.7 1.7 0 00.662-.411c.737-.738.606-1.993-.198-2.616l.984-.213a1.827 1.827 0 001.432-1.774c0-.965-.788-1.777-1.732-1.816zm-12.37-19.53a2.453 2.453 0 012.45-2.45h.72v.72a2.453 2.453 0 01-2.327 2.447l.743-.658a.513.513 0 10-.68-.768l-.906.803v-.094zm-1.916.597a.513.513 0 00-.725.725l.89.89a2.453 2.453 0 01-2.446-2.45v-.72h.721a2.453 2.453 0 012.45 2.445l-.89-.89zM4.535 25.594a.796.796 0 01-.625-.772c0-.49.462-.873.94-.777.16.596.361 1.181.603 1.748l-.918-.199zM5.827 28.7a.69.69 0 010-.967l2.03-2.03a.69.69 0 01.967 0c.267.266.267.7 0 .966l-2.03 2.03a.69.69 0 01-.967 0zm.967 2.416a.684.684 0 010-.966l3.48-3.48a.688.688 0 01.967 0 .69.69 0 010 .966l-3.48 3.48a.69.69 0 01-.967 0zm2.659 1.692a.684.684 0 01-.967-.966l3.48-3.48a.685.685 0 01.967.966l-3.48 3.48zm4.447-1.063l-2.03 2.03a.684.684 0 01-.967 0 .69.69 0 010-.966l2.03-2.03a.69.69 0 01.967 0c.266.266.266.7 0 .966zm.725-1.692a1.702 1.702 0 00-.663-.412 1.712 1.712 0 00-.304-2.005 1.703 1.703 0 00-1.191-.499 1.698 1.698 0 00-.5-1.193 1.698 1.698 0 00-1.209-.5 1.7 1.7 0 00-.798.197 1.697 1.697 0 00-.41-.663 1.698 1.698 0 00-1.209-.5c-.456 0-.886.177-1.208.5l-.64.639a12.113 12.113 0 01-1.064-4.96 12 12 0 012.054-6.728c1.07.742 1.867 1.727 2.169 2.702.193.621.153 1.123.098 1.817-.067.85-.15 1.908.171 3.588.157.82.324 1.335.453 1.693a.513.513 0 10.965-.347 9.741 9.741 0 01-.41-1.538c-.297-1.545-.222-2.485-.157-3.315.06-.747.11-1.392-.14-2.202-.372-1.198-1.284-2.35-2.54-3.224a12.098 12.098 0 016.384-4.133c.294 1.243.537 2.58.74 3.884.328 2.104.587 3.765 1.845 4.17.723.233 1.342-.117 1.888-.425.509-.288.99-.56 1.573-.446.89.172 1.472 1.59 2.286 2.258 1.195.983 2.943 1.374 4.693 1.229a.513.513 0 00-.085-1.022c-1.56.129-3.04-.244-3.957-.999-1.018-.837-1.239-2.181-2.742-2.473-.954-.185-1.685.228-2.273.56-.48.271-.787.433-1.068.343-.657-.212-.895-1.737-1.147-3.352a52.872 52.872 0 00-.75-3.94 12.1 12.1 0 012.02-.17c6.657 0 12.071 5.414 12.071 12.07 0 1.71-.366 3.41-1.064 4.96l-.639-.64a1.698 1.698 0 00-1.208-.5 1.701 1.701 0 00-1.619 1.164 1.708 1.708 0 00-.859-.195c-1.153-1.047-3.512-3.08-5.196-2.274-.886.425-1.02 1.304-1.177 2.322-.113.733-.241 1.565-.65 2.498-.458 1.041-1.157 1.94-2.122 2.726a1.69 1.69 0 00-.411-.665zm5.75 0a1.711 1.711 0 00-.068 2.345c-.915.218-1.855.328-2.807.328s-1.893-.11-2.807-.328c.087-.098.16-.204.222-.315 1.498-1.015 2.54-2.22 3.181-3.68.464-1.055.61-1.997.725-2.754.142-.92.227-1.37.607-1.552.942-.452 2.673.89 3.686 1.772a1.7 1.7 0 00-.58 1.268c-.433.004-.864.17-1.192.5a1.712 1.712 0 00-.304 2.005 1.703 1.703 0 00-.663.411zm3.722 3.722a.684.684 0 01-.967 0l-2.03-2.03a.684.684 0 010-.967.688.688 0 01.967 0l2.03 2.03a.69.69 0 010 .967zm2.417-.967a.684.684 0 01-.967 0l-3.48-3.48a.684.684 0 01.966-.967l3.48 3.48c.267.267.267.7 0 .967zm1.692-1.692a.69.69 0 01-.967 0l-3.48-3.48a.689.689 0 010-.966.688.688 0 01.966 0c1.094 1.104 2.435 2.434 3.48 3.48.267.266.267.7 0 .966zm.966-2.416a.684.684 0 01-.966 0l-2.03-2.03a.684.684 0 010-.967.69.69 0 01.966 0c.399.399 1.608 1.611 2.03 2.03a.69.69 0 010 .967zm1.293-3.106l-.918.2a13.09 13.09 0 00.602-1.75.8.8 0 01.94.778.794.794 0 01-.624.772z"/></g><defs><clipPath id="aprefix__prefix__clip0"><path d="M0 0h35v35H0z"/></clipPath></defs></symbol><symbol viewBox="0 0 35 35" id="about2" xmlns="http://www.w3.org/2000/svg"><g clip-path="url(#bprefix__clip0)"><path d="M25.053 4.002c-1.771-1.67-4.807-2.05-7.553.696C14.758 1.954 11.718 2.332 9.947 4a5.002 5.002 0 00-.11 7.182l7.663 7.665 7.664-7.664a5.002 5.002 0 00-.11-7.181zm-.841 6.228L17.5 16.943l-6.712-6.711a3.654 3.654 0 01.082-5.25 3.506 3.506 0 012.426-.943c1.928 0 2.794 1.153 4.204 2.562 1.372-1.372 2.255-2.562 4.204-2.562.92 0 1.782.334 2.427.941a3.653 3.653 0 01.08 5.25zM32.7 4.04c-1.187 0-2.17.888-2.289 2.067l-.852 8.415c-.41.087-.788.286-1.08.579l-6.8 6.33a4.572 4.572 0 00-1.487 3.338v7.54h8.077V28.76c0-.548.23-1.081.648-1.477l5.108-5.155a3.348 3.348 0 00.975-2.37V6.34c0-1.268-1.032-2.3-2.3-2.3zm.954 15.718a2.01 2.01 0 01-.586 1.423l-5.092 5.14a3.37 3.37 0 00-1.053 2.439v2.202H21.54v-6.185a3.216 3.216 0 011.053-2.353l6.822-6.353a.854.854 0 01.698-.246.86.86 0 01.796.865.862.862 0 01-.235.597l-5.25 4.762.904.997 5.275-4.786c.42-.42.652-.977.652-1.571a2.2 2.2 0 00-.65-1.57 2.147 2.147 0 00-.704-.475l.85-8.4a.955.955 0 011.905.096v13.418zM13.32 21.43l-6.8-6.33a2.15 2.15 0 00-1.079-.578L4.59 6.107a2.292 2.292 0 00-2.288-2.068A2.304 2.304 0 000 6.34v13.42c0 .892.346 1.733.975 2.367l5.108 5.156c.418.396.648.93.648 1.478v3.548h8.077v-7.54a4.569 4.569 0 00-1.488-3.338zm.141 9.532H8.077V28.76c0-.917-.384-1.807-1.053-2.44l-5.092-5.139a2.01 2.01 0 01-.586-1.423V6.34a.955.955 0 011.905-.099l.85 8.4c-.262.11-.5.27-.705.476-.418.418-.65.976-.65 1.57 0 .593.232 1.15.652 1.57l5.275 4.786.905-.996-5.251-4.763a.853.853 0 01-.235-.596.87.87 0 01.257-.62.858.858 0 01.539-.246.857.857 0 01.699.246l6.82 6.353a3.216 3.216 0 011.054 2.353v6.188z"/></g><defs><clipPath id="bprefix__clip0"><path d="M0 0h35v35H0z"/></clipPath></defs></symbol><symbol viewBox="0 0 35 35" id="about3" xmlns="http://www.w3.org/2000/svg"><path d="M33.705 27.446a.684.684 0 100-1.367.684.684 0 000 1.367z"/><path d="M33.824 29.89a.685.685 0 00-1.343-.249l-.001.005-.026.116a.669.669 0 00.008.326l.882 3.256-3.377-.915a.682.682 0 00-.466.04c-1.085.507-2.756.776-4.83.776h-.047c-1.719 0-3.726-.167-6.139-.51a24.477 24.477 0 00-3.475-.243h-.004a44.21 44.21 0 00-2.954.123c-.773.05-1.504.099-2.201.099h-.02c-1.322-.002-2.342-.161-3.413-.537a.679.679 0 00-.405-.014l-4.357 1.181.882-3.256a.669.669 0 00.008-.327c-.782-3.52-1.179-7.408-1.179-11.555 0-5.747.755-10.553 1.205-12.906a.685.685 0 00-.011-.307l-.905-3.337 3.377.915c.147.04.313.028.454-.034.991-.437 3.101-1.17 6.086-1.17 2.295 0 4.697.43 7.138 1.276.556.193 1.167.286 1.87.286.818 0 1.656-.125 2.466-.245.063-.01 2.002-.32 2.898-.286.667.025 1.823.139 2.637.425a.678.678 0 00.405.014l4.357-1.181-.905 3.337a.685.685 0 00-.011.307 70.766 70.766 0 011.205 12.906c0 1.862-.082 3.692-.24 5.44a.683.683 0 101.36.125A61.49 61.49 0 0035 18.206 72.63 72.63 0 0033.8 5.2L34.976.863a.684.684 0 00-.839-.84l-5.307 1.44a9.217 9.217 0 00-2.877-.432h-.003c-1.069 0-2.965.28-2.965.28-.865.13-1.682.252-2.397.252h-.008c-.547-.001-1.012-.07-1.42-.212C16.574.455 14.022 0 11.575 0h-.002C10.24 0 8.94.135 7.708.403 6.798.6 5.94.865 5.16 1.189L.863.024a.684.684 0 00-.839.839L1.2 5.199A72.6 72.6 0 000 18.206c0 4.182.396 8.114 1.175 11.687L.024 34.137a.684.684 0 00.839.839l5.306-1.439c1.128.371 2.287.544 3.649.544h.012a36.81 36.81 0 002.36-.104 41.349 41.349 0 012.797-.117h.019c1.123 0 2.199.075 3.286.23 2.479.35 4.551.522 6.335.522 1.06-.002 1.975-.06 2.797-.176.934-.132 1.724-.337 2.418-.625l4.295 1.165a.685.685 0 00.663-.176.684.684 0 00.176-.663l-1.152-4.247z"/><path d="M11.866 27.264a.684.684 0 00.877 1.048 23.77 23.77 0 002.194-2.096h4.241c.21 0 .407-.096.537-.26 2.07-2.623 3.392-5.233 3.93-7.756.439-2.053.363-4.049-.224-5.934-1.001-3.212-3.132-4.965-3.223-5.038a.683.683 0 00-1.105.427c-.63 4.109-4.814 7.327-4.879 7.377a.684.684 0 00-.259.678l.277 1.4-.506-.331a.683.683 0 00-.972.239l-1.594 2.864a.684.684 0 00-.004.656l2.64 4.897a22.16 22.16 0 01-1.93 1.829zm.671-7.045l1.054-1.894 1.252.822a.684.684 0 001.045-.704l-.511-2.592c.977-.814 3.754-3.358 4.778-6.726.623.73 1.456 1.93 1.96 3.548 1.168 3.746.067 7.841-3.27 12.176h-2.731a24.645 24.645 0 002.22-3.27c1.402-2.483 2.174-4.94 2.174-6.916a.684.684 0 10-1.367 0c0 2.782-1.756 6.52-4.38 9.68l-2.224-4.124z"/></symbol><symbol viewBox="0 0 35 35" id="about4" xmlns="http://www.w3.org/2000/svg"><path d="M22.292 13.652a1.182 1.182 0 10-.378-2.333 1.182 1.182 0 00.378 2.333z"/><path d="M34.162 8.592a4.112 4.112 0 00-4.555-.555c.066-.463.106-.932.12-1.405a4.112 4.112 0 00.794-3.78A4.112 4.112 0 0027.56.02a.683.683 0 00-.657.192 4.111 4.111 0 00-.973 3.979 4.112 4.112 0 002.419 2.657 10.788 10.788 0 01-1.375 4.757l-1.348-1.348a3.896 3.896 0 00-1.691-2.053 3.936 3.936 0 00-2.927-.433c-1.64.387-2.884 1.734-3.172 3.432l-.188 1.115L6.019.21a.683.683 0 00-1.054.083l-.612.878a5.812 5.812 0 00-.82 4.951c.104.36.24.705.406 1.031L1.554 6.14a.683.683 0 00-.951.63v1.683c0 1.34.426 2.621 1.2 3.677l.495 2.661a4.665 4.665 0 001.421 2.585 6.2 6.2 0 002.582 3.896 6.198 6.198 0 004.484 1.022l-.01.014a7.165 7.165 0 01-3.399 2.428l-5.173 1.748a.684.684 0 00-.359 1.014l4.564 7.185a.684.684 0 001.092.083l4.244-4.867a2.782 2.782 0 012.35-.936c.356.033.717.05 1.074.05 6.32 0 11.463-5.143 11.463-11.464 0-1.085-.077-2.028-.238-2.869a12.26 12.26 0 001.923-2.678 4.13 4.13 0 002.054.549c.446 0 .893-.073 1.325-.221a4.112 4.112 0 002.69-3.09.683.683 0 00-.223-.648zm-6.918-4.784a2.74 2.74 0 01.386-2.331 2.74 2.74 0 011.579 1.758 2.74 2.74 0 01-.386 2.33 2.74 2.74 0 01-1.58-1.757zM7.395 8.62a4.451 4.451 0 01-2.548-2.877 4.45 4.45 0 01.628-3.791l.136-.195 9.903 10.311L7.395 8.62zm7.773 19.024c-.315 0-.633-.014-.947-.044a4.153 4.153 0 00-3.507 1.4l-3.642 4.176-1.307-2.057 2.234-1.617a.683.683 0 10-.801-1.108l-2.168 1.57L3.466 27.5l4.348-1.47a8.528 8.528 0 004.044-2.89l2.654-3.451a.684.684 0 10-1.084-.833l-1.4 1.82-1.303.242a4.843 4.843 0 01-3.65-.774 4.852 4.852 0 01-1.542-1.72 4.647 4.647 0 002.245.128l3.058-.569a.684.684 0 10-.25-1.344l-3.058.569a3.311 3.311 0 01-2.496-.529 3.311 3.311 0 01-1.39-2.139l-.156-.835a6.204 6.204 0 004.504.865.684.684 0 00-.255-1.344 4.845 4.845 0 01-4.005-1.031 4.845 4.845 0 01-1.76-3.743v-.65l15.837 6.725a.684.684 0 00.942-.515l.436-2.582c.196-1.154 1.035-2.069 2.138-2.33 1.346-.316 2.657.424 3.052 1.723a.685.685 0 00.17.285l.915.915a1.067 1.067 0 00-.828 1.454c.431 1.072.632 2.365.632 4.071 0 5.567-4.529 10.096-10.096 10.096zm16.083-16.608a2.74 2.74 0 01-2.346-.275 2.74 2.74 0 011.68-1.66 2.74 2.74 0 012.347.275 2.74 2.74 0 01-1.68 1.66z"/></symbol><symbol viewBox="0 0 35 35" id="about5" xmlns="http://www.w3.org/2000/svg"><g clip-path="url(#eprefix__clip0)"><path d="M4.231 27.292l.155-1.113a3.11 3.11 0 01.874-1.756l2.227-2.226a.513.513 0 00-.725-.725l-2.227 2.226a4.135 4.135 0 00-1.164 2.34l-.132.942L.15 30.069a.513.513 0 10.725.725l3.21-3.21a.512.512 0 00.146-.292z"/><path d="M14.026 25.505a2.252 2.252 0 00-1.242.635l-1.45 1.451a2.988 2.988 0 00-2.778-.725.513.513 0 00.245.996 1.97 1.97 0 011.879.523l.292.292c.2.2.525.2.725 0l1.812-1.812a1.158 1.158 0 011.637 0 .038.038 0 01.003.051l-3.002 3.267a2.47 2.47 0 01-1.006.66l-1.43.495c-.3.104-.624.087-.912-.048l-1.268-.598-1.344-1.344a.513.513 0 10-.725.725l1.213 1.213-2.654 2.654a.513.513 0 00.725.725l2.822-2.822.794.374a2.228 2.228 0 001.684.09l1.43-.495a3.497 3.497 0 001.426-.935l3.007-3.273.006-.007c.372-.42.353-1.06-.044-1.457a2.174 2.174 0 00-.604-.426l1.19-1.19.14.138a1.273 1.273 0 001.523.213c.033.04.067.078.103.114l5.475 5.476a4.135 4.135 0 002.34 1.164l.942.132 3.089 3.089a.511.511 0 00.725 0c.2-.2.2-.525 0-.725l-3.21-3.21a.513.513 0 00-.293-.146l-1.112-.155a3.104 3.104 0 01-1.756-.874l-5.475-5.476a.493.493 0 01-.065-.081l.679-.68 3.175 3.176a.51.51 0 00.725 0c.2-.2.2-.525 0-.725l-3.175-3.175.687-.688 3.273 3.273a.511.511 0 00.724 0c.2-.2.2-.525 0-.725L21.7 21.366l.687-.687 3.243 3.243a.511.511 0 00.725 0c.2-.2.2-.525 0-.725l-3.243-3.243.387-.387c.102-.102.196-.207.285-.315l1.743 1.743c.066.447.271.877.614 1.22l1.451 1.451c-.7.747-.97 1.778-.724 2.778a.513.513 0 10.995-.245 1.97 1.97 0 01.524-1.88l.291-.291c.2-.2.2-.525 0-.725l-1.812-1.812a1.158 1.158 0 010-1.637.038.038 0 01.051-.003l.895.822a.513.513 0 00.693-.755l-.9-.827a1.065 1.065 0 00-1.464.038c-.18.18-.322.385-.426.604l-1.338-1.339-.025-.023c.22-.45.361-.928.422-1.416.077-.053.15-.112.217-.178l5.475-5.475a4.136 4.136 0 001.165-2.34l.13-.942 3.09-3.089a.513.513 0 10-.725-.725l-3.21 3.21a.513.513 0 00-.146.292l-.155 1.113a3.104 3.104 0 01-.874 1.756l-5.004 5.003a4.492 4.492 0 00-.326-1.048l2.269-2.269a.512.512 0 10-.725-.725l-2.09 2.09a4.525 4.525 0 00-.676-.698l2.176-2.176a.513.513 0 10-.725-.726l-2.33 2.33a4.485 4.485 0 00-1.018-.356l2.631-2.63a.513.513 0 00-.725-.726l-3.262 3.265c-.27.022-.537.07-.8.14l-.015-.014a.486.486 0 010-.688l1.875-1.875a2.17 2.17 0 001.22-.614l1.452-1.451c.746.7 1.777.97 2.777.724a.513.513 0 00-.245-.995 1.97 1.97 0 01-1.879-.523l-.292-.293c-.2-.2-.525-.2-.725 0l-1.812 1.813a1.159 1.159 0 01-1.637 0 .038.038 0 01-.003-.051l3.002-3.267a2.47 2.47 0 011.006-.66l1.43-.496c.3-.104.624-.086.912.05l1.268.597 1.344 1.344a.513.513 0 10.725-.725l-1.213-1.213L30.98 1.06a.513.513 0 00-.725-.725l-2.822 2.822-.794-.374a2.222 2.222 0 00-1.684-.09l-1.43.495a3.497 3.497 0 00-1.426.935L19.09 7.395l-.006.007c-.372.42-.353 1.06.044 1.458.18.18.386.322.604.426l-1.338 1.338a1.512 1.512 0 00-.24 1.821c-.228.125-.448.27-.655.436a4.459 4.459 0 00-.919-.57 1.51 1.51 0 00.196-2.3L15.67 8.903a.513.513 0 00-.725.725l1.106 1.106a.486.486 0 01-.687.688L12.263 8.32a.513.513 0 10-.725.725l2.859 2.859c-.39.024-.776.099-1.15.224l-2.493-2.493a.513.513 0 00-.726.725l2.238 2.237c-.27.173-.526.376-.761.611l-2.135-2.13a.513.513 0 10-.725.725l2.217 2.217c-.184.297-.33.61-.439.935 0 0-.93-.927-.948-.94a2.171 2.171 0 00-.616-1.231l-1.451-1.45c.7-.747.97-1.778.724-2.778a.513.513 0 00-.995.245 1.97 1.97 0 01-.524 1.879l-.292.292c-.2.2-.2.525 0 .725l1.813 1.812a1.159 1.159 0 010 1.636.038.038 0 01-.051.003l-3.267-3.001a2.47 2.47 0 01-.66-1.007L3.66 9.71a1.2 1.2 0 01.05-.911l.597-1.268 1.344-1.344a.513.513 0 10-.725-.725L3.714 6.675 1.06 4.021a.513.513 0 10-.725.725l2.822 2.822-.374.794a2.223 2.223 0 00-.09 1.684l.495 1.43c.188.544.511 1.037.935 1.426l3.28 3.013a1.061 1.061 0 001.457-.044c.18-.18.322-.386.426-.604l.91.91a4.51 4.51 0 00.26 1.738 1.505 1.505 0 00-.445.308l-1.538 1.538a.513.513 0 10.725.725l1.538-1.538a.478.478 0 01.175-.112c.166.257.361.5.585.726l-3.175 3.175a.513.513 0 10.725.725l3.175-3.175.687.687-3.272 3.272a.513.513 0 10.725.725l3.272-3.272.688.687-3.243 3.243a.513.513 0 10.725.725l3.242-3.243.688.687-1.707 1.707zm3.296-1.568l-5.095-5.095a3.477 3.477 0 01.003-4.908 3.462 3.462 0 012.455-1.015c.888 0 1.776.338 2.453 1.012.2.2.524.2.724 0a3.477 3.477 0 014.908.003 3.478 3.478 0 01.003 4.908l-5.095 5.095a.252.252 0 01-.357 0z"/><path d="M7.417 4.086c.078.079.18.13.291.145l1.113.155c.66.092 1.284.403 1.755.874l2.659 2.658a.511.511 0 00.725 0c.2-.2.2-.524 0-.725L11.3 4.535a4.135 4.135 0 00-2.339-1.164l-.942-.132L4.931.15a.513.513 0 10-.725.725l3.21 3.21zm24.426 23.345l.374-.793c.25-.531.283-1.13.09-1.685l-.495-1.43a3.497 3.497 0 00-.935-1.425l-.591-.543a.513.513 0 10-.694.755l.591.543c.3.275.528.623.66 1.006l.496 1.43c.104.3.086.624-.05.912l-.597 1.268-1.344 1.344a.512.512 0 10.725.725l1.213-1.213 2.654 2.654a.511.511 0 00.725 0c.2-.2.2-.525 0-.725l-2.822-2.823z"/></g><defs><clipPath id="eprefix__clip0"><path d="M0 0h35v35H0z"/></clipPath></defs></symbol><symbol viewBox="0 0 44 44" id="cart" xmlns="http://www.w3.org/2000/svg"><path d="M22 4.125c-3.776 0-6.875 3.1-6.875 6.875v1.375h-6.79l-.085 1.29-1.375 24.75-.087 1.46H37.21l-.085-1.462-1.375-24.75-.087-1.288h-6.788V11c0-3.776-3.1-6.875-6.875-6.875zm0 2.75A4.125 4.125 0 0126.125 11v1.375h-8.25V11A4.125 4.125 0 0122 6.875zm-11.087 8.25h4.212v4.125h2.75v-4.125h8.25v4.125h2.75v-4.125h4.212l1.203 22H9.712l1.201-22z"/></symbol><symbol viewBox="0 0 22 22" id="leaf" xmlns="http://www.w3.org/2000/svg"><path d="M20.625 0C11.307 0 3.643 7.168 2.83 16.278c1.548-2.183 3.444-4.284 5.812-6.7a.459.459 0 01.654.642 109.037 109.037 0 00-1.693 1.767l-.11.12c-2.926 3.133-5.018 5.86-6.537 9.247a.459.459 0 00.837.376 25.158 25.158 0 011.874-3.412 17.861 17.861 0 0015.284-9.392.46.46 0 00-.01-.453.462.462 0 00-.394-.223H16.85l3.044-1.74a.46.46 0 00.207-.248 17.81 17.81 0 00.982-5.804.459.459 0 00-.458-.458z"/></symbol><symbol viewBox="0 0 8 16" id="main-arrow-down" xmlns="http://www.w3.org/2000/svg"><path d="M3.646 15.354a.5.5 0 00.708 0l3.182-3.182a.5.5 0 10-.708-.708L4 14.293l-2.828-2.829a.5.5 0 10-.708.708l3.182 3.182zM3.5 0v15h1V0h-1z"/></symbol><symbol viewBox="0 0 512 512" id="menu" xmlns="http://www.w3.org/2000/svg"><path d="M174 240H66c-36.393 0-66-29.607-66-66V66C0 29.607 29.607 0 66 0h108c36.393 0 66 29.607 66 66v108c0 36.393-29.607 66-66 66zM66 32c-18.748 0-34 15.252-34 34v108c0 18.748 15.252 34 34 34h108c18.748 0 34-15.252 34-34V66c0-18.748-15.252-34-34-34zm380 208H338c-36.393 0-66-29.607-66-66V66c0-36.393 29.607-66 66-66h108c36.393 0 66 29.607 66 66v108c0 36.393-29.607 66-66 66zM338 32c-18.748 0-34 15.252-34 34v108c0 18.748 15.252 34 34 34h108c18.748 0 34-15.252 34-34V66c0-18.748-15.252-34-34-34zm54 480c-66.168 0-120-53.832-120-120s53.832-120 120-120 120 53.832 120 120-53.832 120-120 120zm0-208c-48.523 0-88 39.477-88 88s39.477 88 88 88 88-39.477 88-88-39.477-88-88-88zM174 512H66c-36.393 0-66-29.607-66-66V338c0-36.393 29.607-66 66-66h108c36.393 0 66 29.607 66 66v108c0 36.393-29.607 66-66 66zM66 304c-18.748 0-34 15.252-34 34v108c0 18.748 15.252 34 34 34h108c18.748 0 34-15.252 34-34V338c0-18.748-15.252-34-34-34z"/></symbol><symbol viewBox="0 0 16 9" id="sidebar-arrow" xmlns="http://www.w3.org/2000/svg"><path d="M15 8L8 1 1 8"/></symbol></svg>