<svg width="106" height="24" fill="none" xmlns="http://www.w3.org/2000/svg"><path d="M60.562 2.65c-.176-.521-.407-.962-.904-.982h-1.245a1.023 1.023 0 00-.114-.008H57.9c-.039 0-.078.004-.113.008-.415.063-.623.48-.78.97l-6.144 17.294c0 .229.184.414.411.414h1.284c.509 0 .771-.422.924-.93l1.225-3.604a.612.612 0 01.579-.414h6.833c.259 0 .49.166.576.41l1.276 3.643c.156.508.43.93.962.93h1.343c.238 0 .43-.185.43-.414L60.562 2.65zm-5.014 10.702l3.1-9.098 3.19 9.098h-6.29zM78.526 1.715c-.164-.063-1.115-.055-1.115-.055-.638.016-1.046 0-1.331.398-.043.059-.075.122-.106.185l-3.808 8.298-3.921-8.294c-.032-.063-.063-.126-.106-.185-.286-.398-.693-.386-1.33-.398 0 0-.952-.008-1.116.055-.392.15-.133.635.05 1.033l4.81 9.666c.22.442.333.926.333 1.42v5.834a.71.71 0 00.709.713H72.6a.71.71 0 00.709-.713v-5.807c0-.493.113-.978.333-1.42l4.83-9.697c.187-.398.445-.883.054-1.033zM96.913 10.742l-11.546-9.74a.211.211 0 00-.29.015l-1.706 1.79 9.428 7.935-9.428 7.936 1.707 1.79a.211.211 0 00.29.016l11.545-9.742z" fill="#76A62D"/><path d="M105.21 10.821l-11.546-9.74a.211.211 0 00-.29.015l-1.706 1.79 9.428 7.935-9.428 7.936 1.706 1.79a.211.211 0 00.29.016l11.546-9.742zM14.928 1.648h-1.456a.55.55 0 00-.548.552v17.562c0 .32.258.584.58.584h1.4c.317 0 .58-.26.58-.584V2.204a.56.56 0 00-.556-.556zM9.718 18.118h-6.5V2.204a.549.549 0 00-.548-.552H1.343a.549.549 0 00-.548.552V19.577c0 .363.29.654.65.654H9.722a.563.563 0 00.564-.567v-.978a.574.574 0 00-.568-.568zM48.957 2.68c-.81-.551-1.93-.941-4.07-.941H40.742a.9.9 0 00-.896.902V19.42c0 .513.41.93.923.93h.713a.926.926 0 00.923-.93v-6.303h3.734c.364 0 5.037-.737 5.037-5.862-.004-2.232-1.139-3.832-2.22-4.573zm-3.667 8.504H42.4V3.67h2.059c1.413 0 2.153.256 2.689.623.716.489 1.463 1.545 1.463 3.02.004 3.386-3.08 3.871-3.322 3.871zM37.478 20.764a1.446 1.446 0 00-.336-.178c-.963-.37-2.368-1.352-3.15-1.86-.607-.395-.514-.706-.431-.836l.05-.063.004-.004c1.331-1.644 2.102-3.986 2.102-6.943 0-5.227-2.219-9.465-8.242-9.465-5.542 0-8.204 4.238-8.204 9.465 0 5.228 1.79 9.702 8.204 9.702 1.303 0 2.5-.252 3.553-.741h.004c.31-.134.61-.13 1.026.174 2.974 2.219 4.45 3.035 5.506 3.035.51 0 .42-1.577.42-1.577s-.075-.398-.506-.71zM21.901 10.92v-.04c.008-3.548 1.292-7.312 5.582-7.312 4.86 0 5.604 3.764 5.608 7.313v.039c0 4.222-1.358 7.43-5.608 7.43-4.88 0-5.582-3.87-5.582-7.43z" fill="#76A62D"/></svg>