<svg width="16" height="16" fill="none" xmlns="http://www.w3.org/2000/svg"><g clip-path="url(#prefix__clip0)"><path d="M13.999 2.047h-12.5c-.69 0-1.25.561-1.25 1.25v8.75c0 .69.56 1.25 1.25 1.25h12.5c.69 0 1.25-.56 1.25-1.25v-8.75c0-.689-.56-1.25-1.25-1.25zm-12.5.625h12.5c.046 0 .086.017.13.027-1.082.99-4.67 4.273-5.927 5.404a.693.693 0 01-.453.194.693.693 0 01-.454-.194A1689.518 1689.518 0 011.37 2.699c.043-.01.084-.027.13-.027zm-.625 9.375v-8.75c0-.06.018-.116.035-.172.828.758 3.332 3.048 4.955 4.525-1.618 1.39-4.122 3.764-4.957 4.56-.015-.053-.033-.105-.033-.163zm13.125.625h-12.5c-.05 0-.094-.017-.141-.028.863-.823 3.383-3.21 4.973-4.57.207.187.396.359.546.493.257.233.559.355.872.355.313 0 .614-.122.872-.355l.546-.494c1.59 1.36 4.11 3.748 4.973 4.57-.047.012-.091.03-.141.03zm.625-.625c0 .058-.018.11-.033.163-.835-.796-3.34-3.17-4.958-4.56 1.624-1.477 4.127-3.767 4.956-4.525.016.056.035.111.035.172v8.75z" fill="#000"/></g><defs><clipPath id="prefix__clip0"><path fill="#fff" transform="translate(.249 .172)" d="M0 0h15v15H0z"/></clipPath></defs></svg>