<svg width="52" height="32" fill="none" xmlns="http://www.w3.org/2000/svg"><path d="M51.959 16.305c0 8.505-6.916 15.5-15.5 15.5-8.505 0-15.5-6.995-15.5-15.5 0-8.505 6.915-15.5 15.42-15.5 8.664 0 15.58 6.995 15.58 15.5z" fill="#F9B50B"/><path d="M31.212 16.384c0-1.113-.159-2.226-.317-3.259h-9.539c.08-.556.239-1.033.397-1.669h8.506c-.16-.556-.398-1.113-.636-1.67h-7.234c.239-.556.557-1.033.875-1.668h5.484a10.853 10.853 0 00-1.192-1.67h-3.02c.476-.556.953-1.033 1.59-1.59C23.422 2.316 19.765.806 15.711.806 7.287 1.043.293 7.8.293 16.305c0 8.505 6.915 15.5 15.5 15.5 4.054 0 7.63-1.59 10.413-4.054.556-.477 1.033-1.034 1.59-1.67h-3.18a11.357 11.357 0 01-1.113-1.59h5.405a8.224 8.224 0 00.875-1.668h-7.234a8.129 8.129 0 01-.635-1.67h8.505c.477-1.43.794-3.02.794-4.769z" fill="#C8191C"/><path d="M21.277 20.28l.238-1.431c-.08 0-.238.079-.397.079-.557 0-.636-.318-.557-.477l.477-2.862h.875L22.15 14h-.795l.16-.953h-1.67s-.954 5.405-.954 6.04c0 .955.556 1.432 1.351 1.432a2.44 2.44 0 001.034-.239zM21.833 17.656c0 2.305 1.59 2.861 2.862 2.861 1.192 0 1.748-.238 1.748-.238l.318-1.59s-.874.398-1.748.398c-1.829 0-1.51-1.352-1.51-1.352h3.338s.238-1.033.238-1.51c0-1.033-.556-2.385-2.384-2.385-1.59-.08-2.862 1.75-2.862 3.816zm2.862-2.385c.874 0 .715 1.034.715 1.113h-1.828c.08-.08.238-1.113 1.113-1.113zM35.107 20.28l.318-1.829s-.795.397-1.43.397c-1.113 0-1.67-.874-1.67-1.907 0-1.987.954-3.02 2.146-3.02.795 0 1.51.476 1.51.476l.24-1.749s-.955-.397-1.908-.397c-1.908 0-3.736 1.67-3.736 4.77 0 2.066.953 3.417 2.94 3.417.716.08 1.59-.159 1.59-.159zM12.295 13.76c-1.113 0-1.988.319-1.988.319l-.238 1.43s.715-.318 1.828-.318c.557 0 1.034.08 1.034.557 0 .318-.08.397-.08.397h-.715c-1.431 0-2.941.557-2.941 2.465 0 1.51.953 1.828 1.59 1.828 1.112 0 1.669-.716 1.748-.716l-.08.636h1.352l.636-4.53c0-1.988-1.59-2.067-2.146-2.067zm.318 3.657c0 .239-.16 1.59-1.113 1.59-.477 0-.636-.398-.636-.636 0-.397.238-.954 1.51-.954h.239zM16.03 20.438c.398 0 2.465.08 2.465-2.146 0-2.067-1.988-1.67-1.988-2.464 0-.398.318-.557.875-.557.238 0 1.113.08 1.113.08l.238-1.51s-.556-.16-1.59-.16c-1.192 0-2.464.478-2.464 2.147 0 1.907 2.067 1.748 2.067 2.464 0 .477-.557.556-.954.556-.715 0-1.51-.238-1.51-.238l-.239 1.51c.16.16.636.318 1.988.318zM48.78 12.49l-.319 2.225s-.636-.795-1.59-.795c-1.51 0-2.782 1.828-2.782 3.974 0 1.352.636 2.703 2.067 2.703.954 0 1.59-.636 1.59-.636l-.08.556h1.67l1.192-7.869-1.749-.159zm-.796 4.292c0 .874-.397 2.066-1.351 2.066-.556 0-.874-.477-.874-1.351 0-1.351.556-2.146 1.35-2.146.557.08.875.477.875 1.43zM3.313 20.358l.953-5.882.16 5.882h1.112l2.146-5.882-.874 5.882h1.749L9.91 12.49H7.207l-1.669 4.849-.08-4.849H3.075l-1.351 7.87h1.59z" fill="#fff"/><path d="M28.748 20.358c.477-2.702.557-4.928 1.75-4.53.158-1.034.397-1.51.556-1.908h-.318c-.716 0-1.352.954-1.352.954l.16-.875h-1.59l-1.034 6.36h1.828zM38.923 13.76c-1.113 0-1.987.319-1.987.319l-.239 1.43s.715-.318 1.828-.318c.557 0 1.034.08 1.034.557 0 .318-.08.397-.08.397h-.715c-1.431 0-2.941.557-2.941 2.465 0 1.51.954 1.828 1.59 1.828 1.112 0 1.669-.716 1.748-.716l-.08.636h1.511l.636-4.53c0-1.988-1.749-2.067-2.305-2.067zm.397 3.657c0 .239-.159 1.59-1.113 1.59-.477 0-.636-.398-.636-.636 0-.397.239-.954 1.51-.954h.24zM42.5 20.358c.477-2.702.556-4.928 1.748-4.53.16-1.034.398-1.51.557-1.908h-.318c-.716 0-1.351.954-1.351.954l.158-.875h-1.59l-1.033 6.36H42.5z" fill="#fff"/></svg>