<svg width="16" height="16" fill="none" xmlns="http://www.w3.org/2000/svg"><g clip-path="url(#prefix__clip0)" fill="#000"><path d="M14.856 11.745L11.819 9.72a.886.886 0 00-1.186.193l-.884 1.137a.378.378 0 01-.485.102l-.168-.093c-.558-.304-1.252-.682-2.65-2.081S4.67 6.885 4.365 6.328l-.092-.168a.378.378 0 01.1-.486l1.136-.884a.887.887 0 00.193-1.187L3.677.567A.882.882 0 002.49.299l-1.27.763a1.79 1.79 0 00-.816 1.06c-.457 1.666-.114 4.54 4.121 8.776 3.37 3.368 5.877 4.274 7.6 4.274a4.43 4.43 0 001.176-.153 1.789 1.789 0 001.06-.817l.763-1.269a.882.882 0 00-.267-1.188zm-.164.932l-.761 1.27c-.169.287-.442.5-.763.59-1.538.422-4.224.073-8.29-3.993C.812 6.48.463 3.792.885 2.254c.091-.321.303-.595.592-.763l1.27-.762a.382.382 0 01.515.116l1.1 1.651.923 1.385a.385.385 0 01-.084.515l-1.136.884a.875.875 0 00-.232 1.123l.09.164c.32.586.717 1.315 2.167 2.764 1.45 1.45 2.179 1.847 2.764 2.167l.164.09a.875.875 0 001.123-.231l.884-1.137a.385.385 0 01.515-.084l3.036 2.025c.17.113.222.34.116.516zM8.748 2.674a4.254 4.254 0 014.25 4.25.25.25 0 10.5 0 4.754 4.754 0 00-4.75-4.75.25.25 0 100 .5z"/><path d="M8.748 4.173a2.753 2.753 0 012.75 2.75.25.25 0 10.5 0 3.253 3.253 0 00-3.25-3.25.25.25 0 100 .5z"/><path d="M8.748 5.673c.69.001 1.25.56 1.25 1.25a.25.25 0 10.5 0 1.752 1.752 0 00-1.75-1.75.25.25 0 100 .5z"/></g><defs><clipPath id="prefix__clip0"><path fill="#fff" transform="translate(.249 .172)" d="M0 0h15v15H0z"/></clipPath></defs></svg>