<svg width="81" height="62" fill="none" xmlns="http://www.w3.org/2000/svg"><g opacity=".1" clip-path="url(#prefix__clip0)"><path d="M6.814 56.666C2.137 51.698-.375 46.126-.375 37.092c0-15.896 11.159-30.143 27.386-37.187l4.056 6.258c-15.146 8.193-18.108 18.825-19.288 25.529 2.438-1.263 5.631-1.704 8.76-1.413 8.194.759 14.652 7.485 14.652 15.846a15.895 15.895 0 01-15.896 15.896 17.582 17.582 0 01-12.48-5.355zm45.417 0c-4.678-4.968-7.19-10.54-7.19-19.574 0-15.896 11.16-30.143 27.387-37.187l4.056 6.258c-15.147 8.193-18.108 18.825-19.289 25.529 2.439-1.263 5.632-1.704 8.761-1.413 8.193.759 14.651 7.485 14.651 15.846a15.896 15.896 0 01-15.895 15.896 17.582 17.582 0 01-12.48-5.355z" fill="#000"/></g><defs><clipPath id="prefix__clip0"><path fill="#fff" d="M0 0h81v62H0z"/></clipPath></defs></svg>