<svg width="44" height="43" viewBox="0 0 44 43" fill="none" xmlns="http://www.w3.org/2000/svg">
<path d="M32.8818 32.0511C30.7776 34.1425 28.0967 35.5667 25.1781 36.1437C22.2594 36.7207 19.2342 36.4246 16.4849 35.2927C13.7357 34.1609 11.3858 32.2442 9.73256 29.785C8.07929 27.3259 7.19687 24.4347 7.19687 21.4771C7.19687 18.5194 8.07929 15.6282 9.73256 13.1691C11.3858 10.7099 13.7357 8.79321 16.4849 7.66137C19.2342 6.52954 22.2594 6.2334 25.1781 6.81041C28.0967 7.38741 30.7776 8.81164 32.8818 10.903L32.7792 11.0049C30.6953 8.93373 28.0402 7.52323 25.1498 6.95179C22.2593 6.38035 19.2632 6.67363 16.5404 7.79455C13.8177 8.91547 11.4905 10.8137 9.85315 13.2492C8.21582 15.6846 7.34191 18.5479 7.34191 21.4771C7.34191 24.4062 8.21583 27.2695 9.85315 29.7049C11.4905 32.1404 13.8177 34.0386 16.5404 35.1595C19.2632 36.2805 22.2593 36.5738 25.1498 36.0023C28.0402 35.4309 30.6953 34.0204 32.7792 31.9492L32.8818 32.0511Z" fill="#121212"/>
<path d="M25.9647 16.4771L20.9647 21.477L25.9647 26.4771" stroke="#121212"/>
</svg>
