<svg width="113" height="21" viewBox="0 0 113 21" fill="none" xmlns="http://www.w3.org/2000/svg">
<path d="M10.8789 0.147461L13.124 7.05729H20.3895L14.5116 11.3278L16.7568 18.2376L10.8789 13.9671L5.00105 18.2376L7.24619 11.3278L1.36834 7.05729H8.63377L10.8789 0.147461Z" fill="#FED441"/>
<path d="M33.8789 0.147461L36.124 7.05729H43.3895L37.5116 11.3278L39.7568 18.2376L33.8789 13.9671L28.0011 18.2376L30.2462 11.3278L24.3683 7.05729H31.6338L33.8789 0.147461Z" fill="#FED441"/>
<path d="M56.8789 0.147461L59.124 7.05729H66.3895L60.5116 11.3278L62.7568 18.2376L56.8789 13.9671L51.0011 18.2376L53.2462 11.3278L47.3683 7.05729H54.6338L56.8789 0.147461Z" fill="#FED441"/>
<path d="M79.8789 0.147461L82.124 7.05729H89.3895L83.5116 11.3278L85.7568 18.2376L79.8789 13.9671L74.0011 18.2376L76.2462 11.3278L70.3683 7.05729H77.6338L79.8789 0.147461Z" fill="#FED441"/>
<path d="M102.879 0.147461L105.124 7.05729H112.389L106.512 11.3278L108.757 18.2376L102.879 13.9671L97.0011 18.2376L99.2462 11.3278L93.3683 7.05729H100.634L102.879 0.147461Z" fill="#FED441"/>
</svg>
