<svg width="113" height="21" viewBox="0 0 113 21" fill="none" xmlns="http://www.w3.org/2000/svg">
<path d="M10.8789 1.7655L12.6485 7.2118L12.7608 7.55729H13.124H18.8506L14.2177 10.9233L13.9238 11.1368L14.0361 11.4823L15.8057 16.9286L11.1728 13.5626L10.8789 13.3491L10.585 13.5626L5.95211 16.9286L7.72172 11.4823L7.83398 11.1368L7.54009 10.9233L2.90718 7.55729H8.63377H8.99704L9.10929 7.2118L10.8789 1.7655Z" stroke="#FED441"/>
<path d="M33.8789 1.7655L35.6485 7.2118L35.7608 7.55729H36.124H41.8506L37.2177 10.9233L36.9238 11.1368L37.0361 11.4823L38.8057 16.9286L34.1728 13.5626L33.8789 13.3491L33.585 13.5626L28.9521 16.9286L30.7217 11.4823L30.834 11.1368L30.5401 10.9233L25.9072 7.55729H31.6338H31.997L32.1093 7.2118L33.8789 1.7655Z" stroke="#FED441"/>
<path d="M56.8789 1.7655L58.6485 7.2118L58.7608 7.55729H59.124H64.8506L60.2177 10.9233L59.9238 11.1368L60.0361 11.4823L61.8057 16.9286L57.1728 13.5626L56.8789 13.3491L56.585 13.5626L51.9521 16.9286L53.7217 11.4823L53.834 11.1368L53.5401 10.9233L48.9072 7.55729H54.6338H54.997L55.1093 7.2118L56.8789 1.7655Z" stroke="#FED441"/>
<path d="M79.8789 1.7655L81.6485 7.2118L81.7608 7.55729H82.124H87.8506L83.2177 10.9233L82.9238 11.1368L83.0361 11.4823L84.8057 16.9286L80.1728 13.5626L79.8789 13.3491L79.585 13.5626L74.9521 16.9286L76.7217 11.4823L76.834 11.1368L76.5401 10.9233L71.9072 7.55729H77.6338H77.997L78.1093 7.2118L79.8789 1.7655Z" stroke="#FED441"/>
<path d="M102.879 1.7655L104.649 7.2118L104.761 7.55729H105.124H110.851L106.218 10.9233L105.924 11.1368L106.036 11.4823L107.806 16.9286L103.173 13.5626L102.879 13.3491L102.585 13.5626L97.9521 16.9286L99.7217 11.4823L99.834 11.1368L99.5401 10.9233L94.9072 7.55729H100.634H100.997L101.109 7.2118L102.879 1.7655Z" stroke="#FED441"/>
</svg>
