<svg width="16" height="16" fill="none" xmlns="http://www.w3.org/2000/svg"><g clip-path="url(#prefix__clip0)"><path d="M.509 7.17l3.668 1.828a.47.47 0 00.445-.014l3.265-1.898L5.91 8.837a.47.47 0 00-.158.351v4.266c0 .45.574.64.843.282l1.586-2.108 3.921 2.233c.275.158.628 0 .691-.315L15.24 1.358a.469.469 0 00-.63-.529L.548 6.314a.47.47 0 00-.04.856zm13.644-5.156l-2.15 10.711-3.715-2.116a.47.47 0 00-.607.126L6.69 12.05V9.4l5.344-4.735c.423-.375-.063-1.04-.546-.756L4.37 8.046 1.874 6.803l12.278-4.789z" fill="#000"/></g><defs><clipPath id="prefix__clip0"><path fill="#fff" transform="translate(.249 .172)" d="M0 0h15v15H0z"/></clipPath></defs></svg>