<svg width="16" height="16" fill="none" xmlns="http://www.w3.org/2000/svg"><g clip-path="url(#prefix__clip0)" fill="#000"><path d="M9.177.172H6.32A5.433 5.433 0 00.893 5.598v2.574c0 2.228 1.37 4.23 3.428 5.046v1.669a.285.285 0 00.477.211l1.657-1.5h2.722a5.433 5.433 0 005.428-5.426V5.598A5.433 5.433 0 009.177.172zm4.856 8a4.86 4.86 0 01-4.856 4.855H6.345c-.071 0-.14.026-.192.074l-1.26 1.142V13.02a.285.285 0 00-.191-.269 4.865 4.865 0 01-3.238-4.579V5.598A4.86 4.86 0 016.32.744h2.857a4.86 4.86 0 014.856 4.854v2.574z"/><path d="M11.524 8.883l-1.756-1.14a.855.855 0 00-1.185.25l-.083.128c-.76-.252-1.597-.572-2.099-2.024l.208-.18a.858.858 0 00.084-1.21l-1.374-1.58a.286.286 0 00-.403-.028l-.862.75c-.756.657-.403 1.63-.287 1.95a.285.285 0 00.019.04c.03.054.746 1.332 1.903 2.51 1.16 1.183 3.257 2.276 3.322 2.307a1.43 1.43 0 001.976-.42l.621-.958a.286.286 0 00-.084-.395zm-1.017 1.042c-.258.396-.79.509-1.21.238-.02-.01-2.103-1.095-3.2-2.214a12.752 12.752 0 01-1.8-2.368c-.227-.634-.187-1.024.132-1.301l.647-.563 1.186 1.365a.283.283 0 01-.028.403l-.35.304a.285.285 0 00-.086.3c.598 1.942 1.76 2.323 2.608 2.602l.124.04a.285.285 0 00.33-.115l.202-.312a.282.282 0 01.395-.083l1.517.985-.467.719zM8.401 4.813a.285.285 0 10-.156.55c.425.12.764.46.884.886a.286.286 0 00.55-.154 1.868 1.868 0 00-1.278-1.282z"/><path d="M10.575 6.52a.286.286 0 00.275-.363 3.628 3.628 0 00-2.482-2.488.285.285 0 10-.156.55A3.052 3.052 0 0110.3 6.311c.036.125.15.208.275.208z"/><path d="M8.245 2.338a.285.285 0 10-.157.55 5.171 5.171 0 013.539 3.547.286.286 0 00.55-.155 5.747 5.747 0 00-3.932-3.942z"/></g><defs><clipPath id="prefix__clip0"><path fill="#fff" transform="translate(.249 .172)" d="M0 0h15v15H0z"/></clipPath></defs></svg>