<svg width="55" height="18" fill="none" xmlns="http://www.w3.org/2000/svg"><path d="M50.713 1.043h-3.418c-1.034 0-1.828.318-2.305 1.351l-6.518 14.864h4.61s.795-1.987.954-2.464h5.643c.16.557.557 2.385.557 2.385h4.133L50.713 1.043zm-5.405 10.413c.397-.954 1.748-4.531 1.748-4.531 0 .08.398-.954.557-1.51l.318 1.43s.874 3.895 1.033 4.69h-3.656v-.08zM38.79 11.933c0 3.338-3.02 5.564-7.71 5.564-1.988 0-3.895-.397-4.929-.874l.636-3.657.557.239c1.43.636 2.384.874 4.133.874 1.272 0 2.623-.477 2.623-1.59 0-.715-.556-1.192-2.305-1.987-1.67-.795-3.895-2.067-3.895-4.372 0-3.18 3.1-5.325 7.472-5.325 1.669 0 3.1.318 3.974.715l-.636 3.498-.318-.318c-.795-.318-1.828-.636-3.338-.636-1.67.08-2.464.795-2.464 1.43 0 .716.954 1.272 2.464 1.988 2.543 1.192 3.736 2.543 3.736 4.45z" fill="#3362AB"/><path d="M0 1.202L.08.884h6.835c.954 0 1.67.318 1.908 1.351l1.51 7.154C8.823 5.574 5.326 2.474 0 1.202z" fill="#F9B50B"/><path d="M19.951 1.043L13.036 17.18h-4.69L4.372 3.666c2.861 1.829 5.246 4.69 6.12 6.677l.477 1.67L15.262.963h4.69v.08zM21.78.964h4.371L23.37 17.179h-4.372L21.78.964z" fill="#3362AB"/></svg>