<svg width="35" height="35" fill="none" xmlns="http://www.w3.org/2000/svg"><path d="M22.292 13.652a1.182 1.182 0 10-.378-2.333 1.182 1.182 0 00.378 2.333z" fill="#000"/><path d="M34.162 8.592a4.112 4.112 0 00-4.555-.555c.066-.463.106-.932.12-1.405a4.112 4.112 0 00.794-3.78A4.112 4.112 0 0027.56.02a.683.683 0 00-.657.192 4.111 4.111 0 00-.973 3.979 4.112 4.112 0 002.419 2.657 10.788 10.788 0 01-1.375 4.757l-1.348-1.348a3.896 3.896 0 00-1.691-2.053 3.936 3.936 0 00-2.927-.433c-1.64.387-2.884 1.734-3.172 3.432l-.188 1.115L6.019.21a.683.683 0 00-1.054.083l-.612.878a5.812 5.812 0 00-.82 4.951c.104.36.24.705.406 1.031L1.554 6.14a.683.683 0 00-.951.63v1.683c0 1.34.426 2.621 1.2 3.677l.495 2.661a4.665 4.665 0 001.421 2.585 6.2 6.2 0 002.582 3.896 6.198 6.198 0 004.484 1.022l-.01.014a7.165 7.165 0 01-3.399 2.428l-5.173 1.748a.684.684 0 00-.359 1.014l4.564 7.185a.684.684 0 001.092.083l4.244-4.867a2.782 2.782 0 012.35-.936c.356.033.717.05 1.074.05 6.32 0 11.463-5.143 11.463-11.464 0-1.085-.077-2.028-.238-2.869a12.26 12.26 0 001.923-2.678c.627.36 1.337.549 2.054.549.446 0 .893-.073 1.325-.221a4.112 4.112 0 002.69-3.09.683.683 0 00-.223-.648zm-6.918-4.784a2.74 2.74 0 01.386-2.331 2.74 2.74 0 011.579 1.758 2.74 2.74 0 01-.386 2.33 2.74 2.74 0 01-1.58-1.757zM7.395 8.62a4.451 4.451 0 01-2.548-2.877 4.45 4.45 0 01.628-3.791l.136-.195 9.903 10.311-8.119-3.448zm7.773 19.024c-.315 0-.633-.014-.947-.044a4.153 4.153 0 00-3.507 1.4l-3.642 4.176-1.307-2.057 2.234-1.617a.683.683 0 10-.801-1.108L5.03 29.964 3.466 27.5l4.348-1.47a8.528 8.528 0 004.044-2.89l2.654-3.451a.684.684 0 10-1.084-.833l-1.4 1.82-1.303.242a4.843 4.843 0 01-3.65-.774 4.852 4.852 0 01-1.542-1.72 4.647 4.647 0 002.245.128l3.058-.569a.684.684 0 10-.25-1.344l-3.058.569a3.311 3.311 0 01-2.496-.529 3.311 3.311 0 01-1.39-2.139l-.156-.835a6.204 6.204 0 004.504.865.684.684 0 00-.255-1.344 4.845 4.845 0 01-4.005-1.031 4.845 4.845 0 01-1.76-3.743v-.65l15.837 6.725a.684.684 0 00.942-.515l.436-2.582c.196-1.154 1.035-2.069 2.138-2.33 1.346-.316 2.657.424 3.052 1.723a.685.685 0 00.17.285l.915.915a1.067 1.067 0 00-.828 1.454c.431 1.072.632 2.365.632 4.071 0 5.567-4.529 10.096-10.096 10.096zm16.083-16.608a2.74 2.74 0 01-2.346-.275 2.74 2.74 0 011.68-1.66 2.74 2.74 0 012.347.275 2.74 2.74 0 01-1.68 1.66z" fill="#000"/></svg>