<svg width="35" height="35" fill="none" xmlns="http://www.w3.org/2000/svg"><g clip-path="url(#prefix__clip0)" fill="#000"><path d="M4.231 27.292l.155-1.113c.092-.66.403-1.284.874-1.756l2.227-2.226a.513.513 0 00-.725-.725l-2.227 2.226a4.135 4.135 0 00-1.164 2.34l-.132.942L.15 30.069a.513.513 0 10.725.725l3.21-3.21a.512.512 0 00.146-.292z"/><path d="M14.026 25.505a2.252 2.252 0 00-1.242.635l-1.45 1.451a2.988 2.988 0 00-2.778-.725.513.513 0 00.245.996 1.97 1.97 0 011.879.523l.292.292c.2.2.525.2.725 0l1.812-1.812a1.158 1.158 0 011.637 0 .038.038 0 01.003.051l-3.002 3.267a2.47 2.47 0 01-1.006.66l-1.43.495c-.3.104-.624.087-.912-.048l-1.268-.598-1.344-1.344a.513.513 0 10-.725.725l1.213 1.213-2.654 2.654a.513.513 0 00.725.725l2.822-2.822.794.374a2.228 2.228 0 001.684.09l1.43-.495a3.497 3.497 0 001.426-.935l3.007-3.273.006-.007c.372-.42.353-1.06-.044-1.457a2.174 2.174 0 00-.604-.426l1.19-1.19.14.138a1.273 1.273 0 001.523.213c.033.04.067.078.103.114l5.475 5.476a4.135 4.135 0 002.34 1.164l.942.132 3.089 3.089a.511.511 0 00.725 0c.2-.2.2-.525 0-.725l-3.21-3.21a.513.513 0 00-.293-.146l-1.112-.155a3.104 3.104 0 01-1.756-.874l-5.475-5.476a.493.493 0 01-.065-.081l.679-.68 3.175 3.176a.51.51 0 00.725 0c.2-.2.2-.525 0-.725l-3.175-3.175.687-.688 3.273 3.273a.511.511 0 00.724 0c.2-.2.2-.525 0-.725L21.7 21.366l.687-.687 3.243 3.243a.511.511 0 00.725 0c.2-.2.2-.525 0-.725l-3.243-3.243.387-.387c.102-.102.196-.207.285-.315l1.743 1.743c.066.447.271.877.614 1.22l1.451 1.451c-.7.747-.97 1.778-.724 2.778a.513.513 0 10.995-.245 1.97 1.97 0 01.524-1.88l.291-.291c.2-.2.2-.525 0-.725l-1.812-1.812a1.158 1.158 0 010-1.637.038.038 0 01.051-.003l.895.822a.513.513 0 00.693-.755l-.9-.827a1.065 1.065 0 00-1.464.038c-.18.18-.322.385-.426.604l-1.338-1.339-.025-.023c.22-.45.361-.928.422-1.416.077-.053.15-.112.217-.178l5.475-5.475a4.136 4.136 0 001.165-2.34l.13-.942 3.09-3.089a.513.513 0 10-.725-.725l-3.21 3.21a.513.513 0 00-.146.292l-.155 1.113a3.104 3.104 0 01-.874 1.756l-5.004 5.003a4.492 4.492 0 00-.326-1.048l2.269-2.269a.512.512 0 10-.725-.725l-2.09 2.09a4.525 4.525 0 00-.676-.698l2.176-2.176a.513.513 0 10-.725-.726l-2.33 2.33a4.485 4.485 0 00-1.018-.356l2.631-2.63a.513.513 0 00-.725-.726l-3.262 3.265c-.27.022-.537.07-.8.14l-.015-.014a.486.486 0 010-.688l1.875-1.875a2.17 2.17 0 001.22-.614l1.452-1.451c.746.7 1.777.97 2.777.724a.513.513 0 00-.245-.995 1.97 1.97 0 01-1.879-.523l-.292-.293c-.2-.2-.525-.2-.725 0l-1.812 1.813a1.159 1.159 0 01-1.637 0 .038.038 0 01-.003-.051l3.002-3.267a2.47 2.47 0 011.006-.66l1.43-.496c.3-.104.624-.086.912.05l1.268.597 1.344 1.344a.513.513 0 10.725-.725l-1.213-1.213 2.654-2.654a.513.513 0 00-.725-.725l-2.822 2.822-.794-.374a2.222 2.222 0 00-1.684-.09l-1.43.495a3.497 3.497 0 00-1.426.935L19.09 7.395l-.006.007c-.372.42-.353 1.06.044 1.458.18.18.386.322.604.426l-1.338 1.338a1.512 1.512 0 00-.24 1.821c-.228.125-.448.27-.655.436a4.459 4.459 0 00-.919-.57 1.51 1.51 0 00.196-2.3L15.67 8.903a.513.513 0 00-.725.725l1.106 1.106a.486.486 0 01-.687.688L12.263 8.32a.513.513 0 10-.725.725l2.859 2.859c-.39.024-.776.099-1.15.224l-2.493-2.493a.513.513 0 00-.726.725l2.238 2.237c-.27.173-.526.376-.761.611L9.37 11.078a.513.513 0 10-.725.725l2.217 2.217c-.184.297-.33.61-.439.935 0 0-.93-.927-.948-.94a2.171 2.171 0 00-.616-1.231l-1.451-1.45c.7-.747.97-1.778.724-2.778a.513.513 0 00-.995.245 1.97 1.97 0 01-.524 1.879l-.292.292c-.2.2-.2.525 0 .725l1.813 1.812a1.159 1.159 0 010 1.636.038.038 0 01-.051.003l-3.267-3.001a2.47 2.47 0 01-.66-1.007L3.66 9.71c-.104-.3-.086-.623.05-.911l.597-1.268 1.344-1.344a.513.513 0 10-.725-.725L3.714 6.675 1.06 4.021a.513.513 0 10-.725.725l2.822 2.822-.374.794a2.223 2.223 0 00-.09 1.684l.495 1.43c.188.544.511 1.037.935 1.426l3.28 3.013a1.061 1.061 0 001.457-.044c.18-.18.322-.386.426-.604l.91.91c-.028.587.059 1.178.26 1.738a1.505 1.505 0 00-.445.308l-1.538 1.538a.513.513 0 10.725.725l1.538-1.538a.478.478 0 01.175-.112c.166.257.361.5.585.726l-3.175 3.175a.513.513 0 10.725.725l3.175-3.175.687.687-3.272 3.272a.513.513 0 10.725.725l3.272-3.272.688.687-3.243 3.243a.513.513 0 10.725.725l3.242-3.243.688.687-1.707 1.707zm3.296-1.568l-5.095-5.095a3.477 3.477 0 01.003-4.908 3.462 3.462 0 012.455-1.015c.888 0 1.776.338 2.453 1.012.2.2.524.2.724 0a3.477 3.477 0 014.908.003 3.478 3.478 0 01.003 4.908l-5.095 5.095a.252.252 0 01-.357 0z"/><path d="M7.417 4.086c.078.079.18.13.291.145l1.113.155c.66.092 1.284.403 1.755.874l2.659 2.658a.511.511 0 00.725 0c.2-.2.2-.524 0-.725L11.3 4.535a4.135 4.135 0 00-2.339-1.164l-.942-.132L4.931.15a.513.513 0 10-.725.725l3.21 3.21zM31.843 27.431l.374-.793c.25-.531.283-1.13.09-1.685l-.495-1.43a3.497 3.497 0 00-.935-1.425l-.591-.543a.513.513 0 10-.694.755l.591.543c.3.275.528.623.66 1.006l.496 1.43c.104.3.086.624-.05.912l-.597 1.268-1.344 1.344a.512.512 0 10.725.725l1.213-1.213 2.654 2.654a.511.511 0 00.725 0c.2-.2.2-.525 0-.725l-2.822-2.823z"/></g><defs><clipPath id="prefix__clip0"><path fill="#fff" d="M0 0h35v35H0z"/></clipPath></defs></svg>