<svg width="35" height="35" fill="none" xmlns="http://www.w3.org/2000/svg"><g clip-path="url(#prefix__clip0)" fill="#000"><path d="M25.053 4.002c-1.771-1.67-4.807-2.05-7.553.696C14.758 1.954 11.718 2.332 9.947 4a5.002 5.002 0 00-.11 7.182l7.663 7.665 7.664-7.664a5.002 5.002 0 00-.11-7.181zm-.841 6.228L17.5 16.943l-6.712-6.711a3.654 3.654 0 01.082-5.25 3.506 3.506 0 012.426-.943c1.928 0 2.794 1.153 4.204 2.562 1.372-1.372 2.255-2.562 4.204-2.562.92 0 1.782.334 2.427.941a3.653 3.653 0 01.08 5.25zM32.7 4.04c-1.187 0-2.17.888-2.289 2.067l-.852 8.415c-.41.087-.788.286-1.08.579l-6.8 6.33a4.572 4.572 0 00-1.487 3.338v7.54h8.077V28.76c0-.548.23-1.081.648-1.477l5.108-5.155a3.348 3.348 0 00.975-2.37V6.34c0-1.268-1.032-2.3-2.3-2.3zm.954 15.718a2.01 2.01 0 01-.586 1.423l-5.092 5.14a3.37 3.37 0 00-1.053 2.439v2.202H21.54v-6.185a3.216 3.216 0 011.053-2.353l6.822-6.353a.854.854 0 01.698-.246.86.86 0 01.796.865.862.862 0 01-.235.597l-5.25 4.762.904.997 5.275-4.786c.42-.42.652-.977.652-1.571a2.2 2.2 0 00-.65-1.57 2.147 2.147 0 00-.704-.475l.85-8.4a.955.955 0 011.905.096v13.418zM13.32 21.43l-6.8-6.33a2.15 2.15 0 00-1.079-.578L4.59 6.107a2.292 2.292 0 00-2.288-2.068A2.304 2.304 0 000 6.34v13.42c0 .892.346 1.733.975 2.367l5.108 5.156c.418.396.648.93.648 1.478v3.548h8.077v-7.54a4.569 4.569 0 00-1.488-3.338zm.141 9.532H8.077V28.76c0-.917-.384-1.807-1.053-2.44l-5.092-5.139a2.01 2.01 0 01-.586-1.423V6.34a.955.955 0 011.905-.099l.85 8.4c-.262.11-.5.27-.705.476-.418.418-.65.976-.65 1.57 0 .593.232 1.15.652 1.57l5.275 4.786.905-.996-5.251-4.763a.853.853 0 01-.235-.596.87.87 0 01.257-.62.858.858 0 01.539-.246.857.857 0 01.699.246l6.82 6.353a3.216 3.216 0 011.054 2.353v6.188z"/></g><defs><clipPath id="prefix__clip0"><path fill="#fff" d="M0 0h35v35H0z"/></clipPath></defs></svg>