<svg width="35" height="35" fill="none" xmlns="http://www.w3.org/2000/svg"><path d="M33.705 27.446a.684.684 0 100-1.367.684.684 0 000 1.367z" fill="#000"/><path d="M33.824 29.89a.685.685 0 00-1.343-.249l-.001.005-.026.116a.669.669 0 00.008.326l.882 3.256-3.377-.915a.682.682 0 00-.466.04c-1.085.507-2.756.776-4.83.776h-.047c-1.719 0-3.726-.167-6.139-.51a24.477 24.477 0 00-3.475-.243h-.004c-1.084.001-2.035.063-2.954.123-.773.05-1.504.099-2.201.099h-.02c-1.322-.002-2.342-.161-3.413-.537a.679.679 0 00-.405-.014l-4.357 1.181.882-3.256a.669.669 0 00.008-.327c-.782-3.52-1.179-7.408-1.179-11.555 0-5.747.755-10.553 1.205-12.906a.685.685 0 00-.011-.307l-.905-3.337 3.377.915c.147.04.313.028.454-.034.991-.437 3.101-1.17 6.086-1.17 2.295 0 4.697.43 7.138 1.276.556.193 1.167.286 1.87.286.818 0 1.656-.125 2.466-.245.063-.01 2.002-.32 2.898-.286.667.025 1.823.139 2.637.425a.678.678 0 00.405.014l4.357-1.181-.905 3.337a.685.685 0 00-.011.307c.45 2.353 1.205 7.159 1.205 12.906 0 1.862-.082 3.692-.24 5.44a.683.683 0 101.36.125A61.49 61.49 0 0035 18.206 72.63 72.63 0 0033.8 5.2L34.976.863a.684.684 0 00-.839-.84l-5.307 1.44a9.217 9.217 0 00-2.877-.432h-.003c-1.069 0-2.965.28-2.965.28-.865.13-1.682.252-2.397.252h-.008c-.547-.001-1.012-.07-1.42-.212C16.574.455 14.022 0 11.575 0h-.002C10.24 0 8.94.135 7.708.403 6.798.6 5.94.865 5.16 1.189L.863.024a.684.684 0 00-.839.839L1.2 5.199A72.6 72.6 0 000 18.206c0 4.182.396 8.114 1.175 11.687L.024 34.137a.684.684 0 00.839.839l5.306-1.439c1.128.371 2.287.544 3.649.544h.012c.78-.001 1.548-.051 2.36-.104a41.349 41.349 0 012.797-.117h.019c1.123 0 2.199.075 3.286.23 2.479.35 4.551.522 6.335.522 1.06-.002 1.975-.06 2.797-.176.934-.132 1.724-.337 2.418-.625l4.295 1.165a.685.685 0 00.663-.176.684.684 0 00.176-.663l-1.152-4.247z" fill="#000"/><path d="M11.866 27.264a.684.684 0 00.877 1.048 23.77 23.77 0 002.194-2.096h4.241c.21 0 .407-.096.537-.26 2.07-2.623 3.392-5.233 3.93-7.756.439-2.053.363-4.049-.224-5.934-1.001-3.212-3.132-4.965-3.223-5.038a.683.683 0 00-1.105.427c-.63 4.109-4.814 7.327-4.879 7.377a.684.684 0 00-.259.678l.277 1.4-.506-.331a.683.683 0 00-.972.239l-1.594 2.864a.684.684 0 00-.004.656l2.64 4.897c-.61.65-1.256 1.265-1.93 1.829zm.671-7.045l1.054-1.894 1.252.822a.684.684 0 001.045-.704l-.511-2.592c.977-.814 3.754-3.358 4.778-6.726.623.73 1.456 1.93 1.96 3.548 1.168 3.746.067 7.841-3.27 12.176h-2.731a24.645 24.645 0 002.22-3.27c1.402-2.483 2.174-4.94 2.174-6.916a.684.684 0 10-1.367 0c0 2.782-1.756 6.52-4.38 9.68l-2.224-4.124z" fill="#000"/></svg>