<svg width="35" height="35" fill="none" xmlns="http://www.w3.org/2000/svg"><g clip-path="url(#prefix__prefix__clip0)"><path d="M30.383 23.006c.14-.773.213-1.56.213-2.35 0-7.049-5.599-12.814-12.583-13.084v-2.35h.72a3.48 3.48 0 003.476-3.476v-.96A.787.787 0 0021.423 0h-.96a3.482 3.482 0 00-3.368 2.618 3.467 3.467 0 00-2.558-1.126h-.96a.787.787 0 00-.786.786v.96a3.48 3.48 0 003.476 3.476h.72v.858c-8.008.296-13.799 7.59-12.37 15.434-.953.04-1.732.859-1.732 1.816 0 .848.602 1.594 1.432 1.774l.984.214c-.819.637-.943 1.87-.199 2.615.193.192.421.33.664.41a1.701 1.701 0 00-.197.798c0 .457.177.886.5 1.209.32.319.742.496 1.193.5a1.71 1.71 0 002.505 1.495c.223.681.912 1.163 1.62 1.163.437 0 .875-.167 1.208-.5l1.262-1.262a13.13 13.13 0 003.643.514c1.24 0 2.464-.173 3.643-.514l1.262 1.262a1.71 1.71 0 002.829-.663 1.712 1.712 0 002.005-.304c.329-.328.495-.76.5-1.191.45-.004.873-.181 1.192-.5a1.733 1.733 0 00.304-2.006 1.7 1.7 0 00.662-.411c.737-.738.606-1.993-.198-2.616l.984-.213a1.827 1.827 0 001.432-1.774c0-.965-.788-1.777-1.732-1.816zm-12.37-19.53a2.453 2.453 0 012.45-2.45h.72v.72a2.453 2.453 0 01-2.327 2.447l.743-.658a.513.513 0 10-.68-.768l-.906.803v-.094zm-1.916.597a.513.513 0 00-.725.725l.89.89a2.453 2.453 0 01-2.446-2.45v-.72h.721a2.453 2.453 0 012.45 2.445l-.89-.89zM4.535 25.594a.796.796 0 01-.625-.772c0-.49.462-.873.94-.777.16.596.361 1.181.603 1.748l-.918-.199zM5.827 28.7a.69.69 0 010-.967l2.03-2.03a.69.69 0 01.967 0c.267.266.267.7 0 .966l-2.03 2.03a.69.69 0 01-.967 0zm.967 2.416a.684.684 0 010-.966l3.48-3.48a.688.688 0 01.967 0 .69.69 0 010 .966l-3.48 3.48a.69.69 0 01-.967 0zm2.659 1.692a.684.684 0 01-.967-.966l3.48-3.48a.685.685 0 01.967.966l-3.48 3.48zm4.447-1.063l-2.03 2.03a.684.684 0 01-.967 0 .69.69 0 010-.966l2.03-2.03a.69.69 0 01.967 0c.266.266.266.7 0 .966zm.725-1.692a1.702 1.702 0 00-.663-.412 1.712 1.712 0 00-.304-2.005 1.703 1.703 0 00-1.191-.499 1.698 1.698 0 00-.5-1.193 1.698 1.698 0 00-1.209-.5 1.7 1.7 0 00-.798.197 1.697 1.697 0 00-.41-.663 1.698 1.698 0 00-1.209-.5c-.456 0-.886.177-1.208.5l-.64.639a12.113 12.113 0 01-1.064-4.96 12 12 0 012.054-6.728c1.07.742 1.867 1.727 2.169 2.702.193.621.153 1.123.098 1.817-.067.85-.15 1.908.171 3.588.157.82.324 1.335.453 1.693a.513.513 0 10.965-.347 9.741 9.741 0 01-.41-1.538c-.297-1.545-.222-2.485-.157-3.315.06-.747.11-1.392-.14-2.202-.372-1.198-1.284-2.35-2.54-3.224a12.098 12.098 0 016.384-4.133c.294 1.243.537 2.58.74 3.884.328 2.104.587 3.765 1.845 4.17.723.233 1.342-.117 1.888-.425.509-.288.99-.56 1.573-.446.89.172 1.472 1.59 2.286 2.258 1.195.983 2.943 1.374 4.693 1.229a.513.513 0 00-.085-1.022c-1.56.129-3.04-.244-3.957-.999-1.018-.837-1.239-2.181-2.742-2.473-.954-.185-1.685.228-2.273.56-.48.271-.787.433-1.068.343-.657-.212-.895-1.737-1.147-3.352a52.872 52.872 0 00-.75-3.94 12.1 12.1 0 012.02-.17c6.657 0 12.071 5.414 12.071 12.07 0 1.71-.366 3.41-1.064 4.96l-.639-.64a1.698 1.698 0 00-1.208-.5 1.701 1.701 0 00-1.619 1.164 1.708 1.708 0 00-.859-.195c-1.153-1.047-3.512-3.08-5.196-2.274-.886.425-1.02 1.304-1.177 2.322-.113.733-.241 1.565-.65 2.498-.458 1.041-1.157 1.94-2.122 2.726a1.69 1.69 0 00-.411-.665zm5.75 0a1.711 1.711 0 00-.068 2.345c-.915.218-1.855.328-2.807.328s-1.893-.11-2.807-.328c.087-.098.16-.204.222-.315 1.498-1.015 2.54-2.22 3.181-3.68.464-1.055.61-1.997.725-2.754.142-.92.227-1.37.607-1.552.942-.452 2.673.89 3.686 1.772a1.7 1.7 0 00-.58 1.268c-.433.004-.864.17-1.192.5a1.712 1.712 0 00-.304 2.005 1.703 1.703 0 00-.663.411zm3.722 3.722a.684.684 0 01-.967 0l-2.03-2.03a.684.684 0 010-.967.688.688 0 01.967 0l2.03 2.03a.69.69 0 010 .967zm2.417-.967a.684.684 0 01-.967 0l-3.48-3.48a.684.684 0 01.966-.967l3.48 3.48c.267.267.267.7 0 .967zm1.692-1.692a.69.69 0 01-.967 0l-3.48-3.48a.689.689 0 010-.966.688.688 0 01.966 0c1.094 1.104 2.435 2.434 3.48 3.48.267.266.267.7 0 .966zm.966-2.416a.684.684 0 01-.966 0l-2.03-2.03a.684.684 0 010-.967.69.69 0 01.966 0c.399.399 1.608 1.611 2.03 2.03a.69.69 0 010 .967zm1.293-3.106l-.918.2a13.09 13.09 0 00.602-1.75.8.8 0 01.94.778.794.794 0 01-.624.772z" fill="#000"/></g><defs><clipPath id="prefix__prefix__clip0"><path fill="#fff" d="M0 0h35v35H0z"/></clipPath></defs></svg>