<svg width="31" height="30" viewBox="0 0 31 30" fill="none" xmlns="http://www.w3.org/2000/svg">
<path d="M26.0544 9.24321H25.9527V5.3402C25.9527 4.16331 24.9952 3.20581 23.8183 3.20581H7.18191C6.00502 3.20581 5.04753 4.16331 5.04753 5.3402V9.24321H4.94585C4.26215 9.24321 3.70589 9.79952 3.70589 10.4832V11.3627C3.70589 11.7452 3.88004 12.0876 4.1531 12.3152V20.3219C4.1531 20.7248 4.34641 21.0833 4.64505 21.3099V22.5579C4.64505 22.8711 4.82804 23.1416 5.09226 23.2703V26.2251C5.09226 26.5389 5.34759 26.7942 5.66142 26.7942H7.00306C7.3169 26.7942 7.57223 26.5389 7.57223 26.2251V25.3631H23.4281V26.2251C23.4281 26.5389 23.6834 26.7942 23.9973 26.7942H25.3389C25.6527 26.7942 25.9081 26.5389 25.9081 26.2251V23.7175C26.1723 23.5888 26.3553 23.3182 26.3553 23.0051V21.3099C26.6539 21.0833 26.8472 20.7248 26.8472 20.3219V12.3153C27.1203 12.0877 27.2944 11.7452 27.2944 11.3628V10.4833C27.2943 9.79952 26.7381 9.24321 26.0544 9.24321ZM5.73859 5.3402C5.73859 4.54436 6.38608 3.89688 7.18191 3.89688H23.8183C24.6141 3.89688 25.2616 4.54436 25.2616 5.3402V9.24321H23.6719V5.36148C23.6719 5.15545 23.5673 4.9678 23.392 4.85949C23.2168 4.75118 23.0021 4.7415 22.8179 4.83369L21.5251 5.48007C21.3702 5.55756 21.1967 5.59847 21.0234 5.59847H17.8031C17.6298 5.59847 17.4563 5.55751 17.3014 5.48007L16.0086 4.83369C15.8468 4.75274 15.6615 4.75049 15.5001 4.82448C15.3386 4.75049 15.1534 4.7527 14.9916 4.83369L13.6988 5.48007C13.5439 5.55756 13.3704 5.59847 13.1971 5.59847H9.97682C9.80355 5.59847 9.63004 5.55751 9.47506 5.48007L8.1823 4.83369C7.99797 4.74155 7.78337 4.75118 7.60816 4.85949C7.43291 4.9678 7.32828 5.15545 7.32828 5.36148V9.24321H5.73859V5.3402ZM25.2169 26.1032H24.1191V25.0176C24.1191 24.8268 23.9644 24.6721 23.7736 24.6721H7.22665C7.03582 24.6721 6.88111 24.8268 6.88111 25.0176V26.1032H5.78333V23.3507H12.8883C13.5341 23.3507 14.1845 23.4045 14.8215 23.5107L15.5284 23.6285C16.2028 23.7409 16.8915 23.7979 17.5753 23.7979H25.2169V26.1032ZM25.6641 23.0052C25.6641 23.0613 25.6185 23.1069 25.5624 23.1069H17.5753C16.9294 23.1069 16.279 23.0531 15.642 22.9469L14.9351 22.8291C14.2607 22.7166 13.572 22.6596 12.8883 22.6596H5.4378C5.38173 22.6596 5.33612 22.614 5.33612 22.558V21.5604C5.35501 21.5613 5.37399 21.5619 5.39306 21.5619H8.56824C8.75907 21.5619 8.91377 21.4072 8.91377 21.2163C8.91377 21.0255 8.75907 20.8708 8.56824 20.8708H5.39306C5.09042 20.8708 4.84417 20.6245 4.84417 20.3219V12.5981C4.87775 12.6008 4.91157 12.6026 4.94585 12.6026H23.1499C22.3304 13.8424 20.7953 14.96 18.7547 15.7891C16.333 16.7729 13.4137 17.293 10.3124 17.293C10.1216 17.293 9.96687 17.4478 9.96687 17.6386C9.96687 17.8294 10.1216 17.9841 10.3124 17.9841C13.502 17.9841 16.5112 17.4465 19.0148 16.4293C21.3824 15.4673 23.1265 14.1143 23.9564 12.6026H24.4776C24.0892 14.9133 23.2479 16.993 22.0935 18.4844C20.8852 20.0456 19.4403 20.8708 17.9151 20.8708H9.8205C9.62967 20.8708 9.47497 21.0255 9.47497 21.2163C9.47497 21.4071 9.62967 21.5618 9.8205 21.5618H25.6072C25.6263 21.5618 25.6452 21.5612 25.6641 21.5604V23.0052ZM26.1561 20.3219C26.1561 20.6245 25.9098 20.8708 25.6072 20.8708H20.4439C22.7425 19.5703 24.5456 16.5318 25.1781 12.6027H26.0544C26.0887 12.6027 26.1225 12.6009 26.1561 12.5982V20.3219ZM26.6033 11.3627C26.6033 11.6654 26.357 11.9116 26.0544 11.9116H4.94585C4.64321 11.9116 4.39695 11.6654 4.39695 11.3627V10.4832C4.39695 10.1806 4.64321 9.93432 4.94585 9.93432H20.5984C20.7892 9.93432 20.9439 9.77962 20.9439 9.58879C20.9439 9.39796 20.7892 9.24326 20.5984 9.24326H8.01939V5.52485L9.16606 6.09816C9.41646 6.22338 9.69685 6.28954 9.97687 6.28954H13.1972C13.4772 6.28954 13.7576 6.22334 14.0079 6.09816L15.1546 5.52485V8.57509C15.1546 8.76591 15.3093 8.92062 15.5001 8.92062C15.6909 8.92062 15.8456 8.76591 15.8456 8.57509V5.52485L16.9923 6.09816C17.2427 6.22338 17.5231 6.28954 17.8031 6.28954H21.0234C21.3034 6.28954 21.5838 6.22334 21.8342 6.09816L22.9808 5.52485V9.24321H21.9065C21.7156 9.24321 21.5609 9.39792 21.5609 9.58874C21.5609 9.77957 21.7156 9.93428 21.9065 9.93428H26.0544C26.357 9.93428 26.6033 10.1805 26.6033 10.4832V11.3627Z" fill="black"/>
</svg>
