<svg width="31" height="31" viewBox="0 0 31 31" fill="none" xmlns="http://www.w3.org/2000/svg">
<g clip-path="url(#clip0)">
<path d="M26.4325 17.3982C26.7021 17.0214 26.8206 16.5571 26.7646 16.0972C26.7087 15.6373 26.4823 15.215 26.1302 14.9138C26.4193 14.6646 26.6252 14.3327 26.7199 13.9629C26.8146 13.5931 26.7937 13.2031 26.66 12.8456C26.5263 12.488 26.2861 12.18 25.972 11.9631C25.6578 11.7463 25.2847 11.6309 24.903 11.6326H22.7674C22.9907 11.2593 23.0743 10.8189 23.0034 10.3897C22.9325 9.96056 22.7117 9.57046 22.3802 9.28883C22.6452 9.06052 22.8407 8.7623 22.9444 8.42819C23.0481 8.09409 23.0557 7.73757 22.9665 7.39932C22.8772 7.06108 22.6947 6.75475 22.4396 6.51529C22.1846 6.27584 21.8674 6.1129 21.5242 6.04509L15.0592 6.00759L8.46518 6.00758L5.21549 6.00759C4.83374 6.00589 4.46064 6.12126 4.14649 6.33815C3.83233 6.55504 3.59221 6.86301 3.45848 7.22057C3.32475 7.57813 3.30384 7.9681 3.39857 8.33791C3.49331 8.70772 3.69913 9.0396 3.9883 9.28883C3.74705 9.49651 3.56301 9.7625 3.45369 10.0615C3.34438 10.3604 3.31343 10.6824 3.36381 10.9967C3.41419 11.311 3.54422 11.6072 3.74149 11.857C3.93877 12.1068 4.19673 12.302 4.4908 12.4238C4.14418 12.719 3.86299 13.0832 3.66524 13.4933C3.46749 13.9034 3.35753 14.3502 3.3424 14.8052C3.32726 15.2602 3.40729 15.7133 3.57735 16.1356C3.74742 16.5579 4.00377 16.9401 4.33002 17.2576H2.87173C2.37982 17.2576 1.90038 17.4124 1.50132 17.7C1.10226 17.9876 0.803814 18.3935 0.648258 18.8602C0.492702 19.3268 0.487921 19.8306 0.634594 20.3002C0.781266 20.7697 1.07195 21.1812 1.46548 21.4763C1.07195 21.7715 0.781266 22.183 0.634594 22.6525C0.487921 23.122 0.492702 23.6258 0.648258 24.0925C0.803814 24.5592 1.10226 24.9651 1.50132 25.2527C1.90038 25.5403 2.37982 25.6951 2.87173 25.6951H25.3717C26.3977 25.6957 27.3887 25.3221 28.1589 24.6445C28.9292 23.9668 29.426 23.0315 29.5561 22.0138C29.6862 20.9961 29.4407 19.966 28.8657 19.1163C28.2907 18.2666 27.4256 17.6558 26.4325 17.3982ZM15.0592 6.00759L8.46518 6.00758C10.0156 6.59094 10.7343 6.84142 15.0592 6.00759ZM4.27799 7.88258C4.27799 7.63394 4.37676 7.39549 4.55257 7.21967C4.72839 7.04386 4.96684 6.94508 5.21549 6.94508H21.153C21.4016 6.94508 21.6401 7.04386 21.8159 7.21967C21.9917 7.39549 22.0905 7.63394 22.0905 7.88258C22.0905 8.13122 21.9917 8.36968 21.8159 8.5455C21.6401 8.72131 21.4016 8.82008 21.153 8.82008H5.21549C4.96684 8.82008 4.72839 8.72131 4.55257 8.5455C4.37676 8.36968 4.27799 8.13122 4.27799 7.88258ZM5.21549 11.6326C4.96684 11.6326 4.72839 11.5338 4.55257 11.358C4.37676 11.1822 4.27799 10.9437 4.27799 10.6951C4.27799 10.4464 4.37676 10.208 4.55257 10.0322C4.72839 9.85635 4.96684 9.75758 5.21549 9.75758H21.153C21.4016 9.75758 21.6401 9.85635 21.8159 10.0322C21.9917 10.208 22.0905 10.4464 22.0905 10.6951C22.0905 10.9437 21.9917 11.1822 21.8159 11.358C21.6401 11.5338 21.4016 11.6326 21.153 11.6326H5.21549ZM4.27799 14.9138C4.27873 14.2925 4.5259 13.6967 4.96528 13.2574C5.40465 12.818 6.00036 12.5708 6.62174 12.5701H24.903C25.1516 12.5701 25.3901 12.6688 25.5659 12.8447C25.7417 13.0205 25.8405 13.2589 25.8405 13.5076C25.8405 13.7562 25.7417 13.9947 25.5659 14.1705C25.3901 14.3463 25.1516 14.4451 24.903 14.4451H5.68424V15.3826H24.903C25.1516 15.3826 25.3901 15.4814 25.5659 15.6572C25.7417 15.833 25.8405 16.0714 25.8405 16.3201C25.8405 16.5687 25.7417 16.8072 25.5659 16.983C25.3901 17.1588 25.1516 17.2576 24.903 17.2576H6.62174C6.00036 17.2568 5.40465 17.0097 4.96528 16.5703C4.5259 16.1309 4.27873 15.5352 4.27799 14.9138ZM25.3717 24.7576H2.87173C2.49877 24.7576 2.14109 24.6094 1.87737 24.3457C1.61364 24.082 1.46548 23.7243 1.46548 23.3513C1.46548 22.9784 1.61364 22.6207 1.87737 22.357C2.14109 22.0932 2.49877 21.9451 2.87173 21.9451H26.3092V21.0076H2.87173C2.49877 21.0076 2.14109 20.8594 1.87737 20.5957C1.61364 20.332 1.46548 19.9743 1.46548 19.6013C1.46548 19.2284 1.61364 18.8707 1.87737 18.607C2.14109 18.3432 2.49877 18.1951 2.87173 18.1951H25.3717C26.242 18.1951 27.0766 18.5408 27.6919 19.1561C28.3073 19.7715 28.653 20.6061 28.653 21.4763C28.653 22.3466 28.3073 23.1812 27.6919 23.7965C27.0766 24.4119 26.242 24.7576 25.3717 24.7576Z" fill="black"/>
</g>
<defs>
<clipPath id="clip0">
<rect width="30" height="30" fill="white" transform="translate(0.059082 0.851318)"/>
</clipPath>
</defs>
</svg>
