<svg width="31" height="31" viewBox="0 0 31 31" fill="none" xmlns="http://www.w3.org/2000/svg">
<g clip-path="url(#clip0)">
<path d="M25.5722 14.8804C24.7438 13.5733 23.8641 10.9837 23.5952 9.93843C23.2986 8.89963 22.744 6.20021 22.8059 4.68043C22.8318 4.2963 22.6575 3.93314 22.3408 3.70844C22.0099 3.47407 21.5715 3.42854 21.178 3.5977C19.071 4.6042 13.7817 6.3965 11.5765 6.98887C9.49923 7.54667 3.97329 8.71466 1.56185 8.91059C1.17385 8.93772 0.835535 9.16108 0.656006 9.50912C0.468803 9.87163 0.486205 10.2974 0.709619 10.6603C1.48052 11.8311 2.33082 14.2529 2.71431 15.5951C3.01132 16.6343 3.5659 19.3334 3.50391 20.8535C3.47842 21.2376 3.65238 21.6008 3.96942 21.8255C4.16635 21.9646 4.40166 22.0372 4.64312 22.0372C4.80677 22.0372 4.97306 22.0043 5.13155 21.9359C7.23954 20.9294 12.5285 19.1371 14.733 18.5447C16.8165 17.9853 22.3362 16.816 24.7112 16.6236C25.1012 16.5975 25.4411 16.3738 25.6213 16.0248C25.8085 15.6619 25.7913 15.2361 25.5722 14.8804ZM24.7606 15.5799C24.7364 15.6274 24.6979 15.6532 24.6398 15.6571C22.2061 15.8543 16.595 17.0413 14.4815 17.6092C12.2441 18.2099 6.86566 20.0341 4.73183 21.0532C4.62982 21.0975 4.55072 21.05 4.52881 21.0345C4.46488 20.9896 4.46875 20.9354 4.47039 20.905C4.53854 19.2432 3.9665 16.4534 3.64529 15.3288C3.30117 14.1243 2.41373 11.4876 1.52599 10.1399C1.47238 10.0527 1.50501 9.97458 1.51632 9.95266C1.54087 9.9052 1.57896 9.87971 1.63029 9.87614C1.63257 9.87614 1.6348 9.87585 1.63708 9.87585C4.09886 9.67634 9.71971 8.49031 11.8277 7.92412C14.0661 7.32302 19.4448 5.4988 21.5774 4.47969C21.6084 4.4668 21.6371 4.46159 21.6629 4.46159C21.7223 4.46159 21.7656 4.48772 21.7804 4.49809C21.8443 4.54297 21.8404 4.59717 21.8385 4.62752C21.7707 6.28939 22.3428 9.07916 22.6604 10.1913C22.9483 11.3091 23.8574 13.984 24.7509 15.3928C24.8045 15.4798 24.7719 15.5579 24.7606 15.5799Z" fill="black"/>
<path d="M6.55211 11.169C6.48045 10.9111 6.2135 10.7597 5.95587 10.832C5.60753 10.9285 4.90606 10.8756 4.54583 10.8201C4.51033 10.8146 4.47482 10.813 4.43896 10.8152C4.04932 10.841 3.70942 11.0648 3.52925 11.4137C3.34234 11.7766 3.35945 12.2024 3.57478 12.5526C3.58122 12.5633 3.5906 12.5768 3.59769 12.5868C3.60062 12.5907 3.87178 12.9687 3.82848 13.3781C3.80042 13.6441 3.99313 13.8823 4.25914 13.9104C4.2766 13.9123 4.29336 13.9129 4.31047 13.9129C4.55515 13.9129 4.76532 13.728 4.79145 13.4804C4.86733 12.7608 4.49222 12.1752 4.39308 12.0348C4.34855 11.9522 4.3789 11.8795 4.38986 11.8586C4.40861 11.8221 4.43539 11.7985 4.4699 11.7878C4.74394 11.8259 5.62781 11.9286 6.21502 11.7652C6.47271 11.6936 6.62376 11.4266 6.55211 11.169Z" fill="black"/>
<path d="M23.9354 11.1196C23.2995 9.51781 21.3349 6.69481 18.4524 7.47345C18.1942 7.54288 18.0412 7.80884 18.1109 8.06711C18.1806 8.32539 18.4463 8.47673 18.7046 8.4083C21.4714 7.65972 22.9728 11.3211 23.0354 11.4773C23.1113 11.6668 23.2934 11.782 23.4858 11.782C23.5452 11.782 23.6059 11.7711 23.6643 11.7478C23.9125 11.649 24.0339 11.3679 23.9354 11.1196Z" fill="black"/>
<path d="M16.8384 14.587C16.5857 14.4953 16.309 14.6264 16.2183 14.8779C15.5933 16.6095 11.6692 18.4017 10.2097 18.9466C9.95923 19.0399 9.83168 19.3191 9.92531 19.5696C9.99796 19.7646 10.1829 19.8847 10.3792 19.8847C10.435 19.8847 10.4921 19.875 10.548 19.854C11.1277 19.6381 16.2395 17.6709 17.1292 15.2068C17.2203 14.9553 17.0899 14.6777 16.8384 14.587Z" fill="black"/>
<path d="M30.4192 15.6922C30.252 15.34 29.9166 15.0985 29.5221 15.0459C29.5108 15.0446 29.5001 15.0433 29.4892 15.0427C28.4665 14.9765 26.804 14.6988 25.3129 14.4358C25.0511 14.389 24.7986 14.5649 24.7519 14.8283C24.7057 15.0918 24.8817 15.3429 25.1447 15.3894C26.652 15.6554 28.3351 15.9366 29.4059 16.0079C29.4924 16.0237 29.5295 16.0767 29.5444 16.1079C29.5618 16.1441 29.5735 16.2025 29.5305 16.2719C28.6409 17.7091 27.7502 20.3927 27.471 21.51C27.1692 22.7183 26.6152 25.4347 26.6827 27.0834C26.6866 27.1379 26.6679 27.1799 26.6278 27.2086C26.6049 27.2248 26.5432 27.258 26.4709 27.2277C24.2318 26.1579 18.7956 24.3692 16.697 23.8055C14.589 23.2706 8.98269 22.1201 6.53773 21.9225C6.44281 21.9099 6.40279 21.8537 6.38732 21.8209C6.36986 21.7841 6.35861 21.7263 6.40185 21.6556C6.40894 21.6436 6.41603 21.631 6.42253 21.6184C6.44802 21.5671 6.48066 21.5164 6.51259 21.4654C6.56134 21.3869 6.60945 21.3085 6.64853 21.2304C6.76765 20.9908 6.6705 20.7 6.43126 20.5805C6.19203 20.4624 5.90118 20.5582 5.78176 20.7978C5.75592 20.8497 5.72335 20.9008 5.69106 20.952C5.64653 21.0234 5.60229 21.0951 5.5655 21.1664C5.3705 21.497 5.35017 21.8946 5.51189 22.2359C5.67911 22.5884 6.01449 22.8298 6.43419 22.8854C8.76332 23.0742 14.3296 24.2041 16.4518 24.7425C18.5139 25.2968 23.8607 27.0545 26.071 28.1098C26.2218 28.1744 26.3796 28.2063 26.5356 28.2063C26.7667 28.2063 26.9936 28.1363 27.188 27.9978C27.5034 27.7747 27.6758 27.4083 27.6503 27.0303C27.5922 25.6147 28.0732 23.0939 28.4108 21.7442C28.723 20.4943 29.5949 18.0079 30.3548 16.7803C30.5603 16.4466 30.5845 16.0396 30.4192 15.6922Z" fill="black"/>
<path d="M25.1917 17.1247C24.9322 17.0563 24.6681 17.2093 24.5987 17.4675C24.5299 17.7261 24.6833 17.9915 24.9415 18.0606C27.7416 18.8091 27.1948 22.7136 27.1702 22.8795C27.1309 23.1439 27.3133 23.3902 27.5776 23.43C27.6022 23.4338 27.6264 23.4355 27.6499 23.4355C27.8856 23.4355 28.0918 23.2637 28.128 23.0236C28.385 21.3235 28.1019 17.9027 25.1917 17.1247Z" fill="black"/>
<path d="M20.2361 22.4417C20.0618 22.2393 19.7557 22.2164 19.5533 22.3914C18.1607 23.5909 13.8698 23.1606 12.3338 22.8946C12.071 22.8478 11.8199 23.0253 11.7741 23.2888C11.7283 23.5518 11.9045 23.8027 12.168 23.8485C12.4866 23.904 14.1107 24.1706 15.8745 24.1706C17.4951 24.1706 19.2337 23.9453 20.1857 23.1244C20.3881 22.9498 20.4107 22.6444 20.2361 22.4417Z" fill="black"/>
</g>
<defs>
<clipPath id="clip0">
<rect width="30" height="30" fill="white" transform="translate(0.527832 0.851318)"/>
</clipPath>
</defs>
</svg>
