<svg width="31" height="31" viewBox="0 0 31 31" fill="none" xmlns="http://www.w3.org/2000/svg">
<g clip-path="url(#clip0)">
<path d="M30.4352 16.6333L28.9482 9.34732C28.3486 6.58553 25.9098 4.61182 23.0837 4.60132H8.47368C5.64779 4.61163 3.20905 6.5852 2.60968 9.34682L0.678681 18.3818C0.677934 18.3938 0.677934 18.4058 0.678681 18.4178C0.232901 20.5831 0.80238 22.8333 2.22449 24.5259C3.64659 26.2184 5.76498 27.1672 7.97468 27.1013H27.7787C28.5548 27.1014 29.2947 26.7735 29.816 26.1985C30.3373 25.6236 30.5915 24.8552 30.5157 24.0828C30.381 22.9217 29.5371 21.9675 28.4012 21.6918C30.0187 20.5614 30.8163 18.5825 30.4347 16.6463C30.4342 16.6418 30.4357 16.6378 30.4352 16.6333ZM3.58768 9.55532C4.08711 7.25431 6.11911 5.60991 8.47368 5.60132H23.0837C25.4369 5.60954 27.4683 7.25198 27.9692 9.55132L28.8527 13.8768C27.9401 13.056 26.7561 12.6017 25.5287 12.6013H7.77868C5.79223 12.5951 3.89181 13.4114 2.52868 14.8563C2.49368 14.8928 2.46468 14.9328 2.42868 14.9698L3.58768 9.55532ZM25.5287 21.6013H7.77868C7.28412 21.6006 6.81287 21.391 6.48117 21.0242C6.14947 20.6574 5.98822 20.1675 6.03718 19.6753C6.16219 18.7591 6.95418 18.0822 7.87868 18.1013H25.5287C25.8048 18.1013 26.0287 17.8775 26.0287 17.6013C26.0287 17.3252 25.8048 17.1013 25.5287 17.1013H7.87868C6.44097 17.0861 5.2205 18.1517 5.04168 19.5783C4.96551 20.3512 5.21934 21.1203 5.7406 21.6961C6.26186 22.2718 7.00204 22.6006 7.77868 22.6013H27.6822C28.6068 22.5823 29.3982 23.261 29.5202 24.1778C29.5708 24.6709 29.4083 25.1621 29.0737 25.5278C28.7417 25.8924 28.2717 26.1006 27.7787 26.1013H7.97468C4.58911 26.1575 1.75578 23.5458 1.53668 20.1668C1.45214 18.4571 2.07178 16.7875 3.25123 15.5469C4.43068 14.3063 6.06692 13.6032 7.77868 13.6013H25.5287C27.7378 13.6013 29.5287 15.3922 29.5287 17.6013C29.5287 19.8105 27.7378 21.6013 25.5287 21.6013Z" fill="black"/>
<path d="M4.94964 10.3563C4.98398 10.3637 5.01901 10.3674 5.05414 10.3673C5.28999 10.3671 5.49358 10.202 5.54264 9.97132C5.84242 8.59181 7.06094 7.60618 8.47264 7.60132H12.5276C12.8038 7.60132 13.0276 7.37746 13.0276 7.10132C13.0276 6.82518 12.8038 6.60132 12.5276 6.60132H8.47264C6.58941 6.60809 4.96404 7.92303 4.56414 9.76332C4.53658 9.89308 4.56173 10.0285 4.63403 10.1397C4.70633 10.2509 4.81986 10.3288 4.94964 10.3563Z" fill="black"/>
<path d="M14.528 7.60132C14.8041 7.60132 15.028 7.37746 15.028 7.10132C15.028 6.82518 14.8041 6.60132 14.528 6.60132C14.2518 6.60132 14.028 6.82518 14.028 7.10132C14.028 7.37746 14.2518 7.60132 14.528 7.60132Z" fill="black"/>
</g>
<defs>
<clipPath id="clip0">
<rect width="30" height="30" fill="white" transform="translate(0.527832 0.851318)"/>
</clipPath>
</defs>
</svg>
