<svg width="31" height="31" viewBox="0 0 31 31" fill="none" xmlns="http://www.w3.org/2000/svg">
<path d="M26.9009 4.68896H26.2994C26.1941 4.4476 26.0456 4.22751 25.8613 4.03943C25.466 3.64622 24.9311 3.42545 24.3736 3.42529H8.36713C7.40558 3.42824 6.50591 3.89985 5.95647 4.68896H4.15491C3.457 4.68896 2.89124 5.25471 2.89124 5.95262C2.89124 6.65054 3.457 7.21629 4.15491 7.21629H5.41857V27.8562C5.41857 28.0888 5.60718 28.2774 5.8398 28.2774H22.6887C22.9213 28.2774 23.1099 28.0888 23.1099 27.8562V27.0137H26.0584C26.2911 27.0137 26.4797 26.8251 26.4797 26.5925V7.21629H26.9009C27.5988 7.21629 28.1646 6.65054 28.1646 5.95262C28.1646 5.25471 27.5988 4.68896 26.9009 4.68896ZM5.53357 5.56594C5.50872 5.65271 5.49145 5.74201 5.47502 5.83131C5.46659 5.87596 5.45438 5.91977 5.44806 5.96484C5.42889 6.10037 5.41905 6.237 5.41857 6.37385H4.15491C3.92229 6.37385 3.73369 6.18524 3.73369 5.95262C3.73369 5.72 3.92229 5.5314 4.15491 5.5314H5.54115C5.53778 5.54278 5.53694 5.55457 5.53357 5.56594ZM22.2674 27.4349H6.26102V24.0652H22.2674V27.4349ZM22.2674 23.2227H6.26102V21.5378H22.2674V23.2227ZM22.6537 4.3225C22.628 4.35914 22.6044 4.39705 22.5813 4.43538C22.5471 4.49141 22.5155 4.54869 22.4865 4.60808C22.4671 4.65021 22.4486 4.68896 22.4313 4.73066C22.4208 4.75678 22.4069 4.78036 22.3976 4.80648L22.3951 4.80985C22.3709 4.8366 22.3502 4.86629 22.3336 4.89831C22.3221 4.913 22.3117 4.92848 22.3024 4.94464C22.2795 4.99682 22.2676 5.05321 22.2674 5.11018V20.6954H6.26102V6.37385C6.25865 6.00343 6.35727 5.63939 6.54618 5.32079C6.92186 4.67011 7.61577 4.26879 8.36713 4.26774H22.6887C22.6756 4.28501 22.6659 4.3048 22.6537 4.3225ZM23.4393 4.68138C23.4923 4.62304 23.5506 4.56986 23.6137 4.52258C23.6301 4.50994 23.6486 4.50025 23.6655 4.48888C23.7144 4.45534 23.7656 4.42533 23.8188 4.39916C23.8432 4.38694 23.8681 4.37641 23.8934 4.3663C23.9457 4.34477 23.9995 4.32687 24.0543 4.31281C24.0787 4.30649 24.1027 4.29891 24.1276 4.29427C24.2085 4.27732 24.2909 4.26842 24.3736 4.26774C24.7073 4.26774 25.0276 4.39942 25.2649 4.6342C25.2821 4.65189 25.3002 4.67042 25.3154 4.68896H23.433L23.4393 4.68138ZM25.6372 26.1713H23.1099V7.21629H25.6372V26.1713ZM26.9009 6.37385H23.1099V5.5314H26.9009C27.1335 5.5314 27.3221 5.72 27.3221 5.95262C27.3221 6.18524 27.1335 6.37385 26.9009 6.37385Z" fill="black"/>
</svg>
